<svg xmlns="http://www.w3.org/2000/svg">
<defs>
<font
   horiz-adv-x="1024"
   id="font3933"
   inkscape:label="font 1">
  <font-face
     units-per-em="1024"
     id="font-face3935"
     font-family="GM" />
  <missing-glyph
     d="M0,0h1000v1024h-1000z"
     id="missing-glyph3937" />
  <glyph
     glyph-name="star"
     id="glyph3832"
     d="M 257.34591,328.98606 17.352574,562.93657 349.01082,611.11614 497.35258,911.67077 645.68097,611.11614 977.35257,562.93657 737.34589,328.98606 794.00936,-1.3369 497.35258,154.62564 200.69594,-1.3369 z"
     unicode="xe000;" />
  <glyph
     glyph-name="stats"
     id="glyph3858"
     unicode="xe001;"
     d="m 722,645.56826 278,0 0,-647.99996 -278,0 z m -362,376.00004 278,0 0,-1024 -278,0 z M -2,331.56828 l 278,0 0,-333.99998 -278,0 z" />
  <glyph
     glyph-name="gmf"
     id="glyph4059"
     unicode="xe002;"
     d="m 291.34921,476.45507 c 1.15691,26.20539 4.27031,51.22837 9.35555,74.71336 h 601.56541 v 89.23936 H 332.41902 c 57.18467,110.42623 170.01774,172.95576 317.85542,172.95576 90.17832,0 149.86564,-17.20304 197.66755,-38.4588 l 27.8914,94.17524 c -38.4855,18.56307 -119.42907,41.1108 -222.87938,41.1108 -221.53194,0 -379.18961,-106.61866 -447.00922,-269.783 H 77.024092 V 551.16843 H 178.9636 c -4.79943,-24.16552 -7.92815,-49.066 -9.30111,-74.71336 H 77.024092 V 383.51721 H 172.49008 C 184.89268,272.46542 228.80539,178.11376 293.44354,115.59715 381.00865,32.02845 492.41431,-2.4317 627.72687,-2.4317 c 120.72208,0 222.85216,30.40758 274.5569,49.07957 V 476.44146 H 291.34921 z M 789.54598,116.92928 C 763.00032,103.65731 711.30919,93.09043 635.71116,93.09043 c -185.73962,0 -314.38984,106.5501 -340.07802,290.41317 H 789.55959 V 116.92928 z" />
  <glyph
     glyph-name="gear"
     id="glyph3075"
     d="m 891.91494,459.67243 c 0,56.29823 31.02345,106.61288 79.72118,140.027 -9.53495,31.50711 -22.37268,61.57705 -37.82221,90.00254 -57.36233,-10.0878 -114.00604,3.60674 -153.34847,42.93535 -39.13514,39.13514 -52.87114,95.3781 -43.05971,152.43637 -27.95565,14.99353 -57.47285,27.43054 -88.38574,36.74449 -33.41412,-48.14508 -83.41093,-78.80924 -139.33605,-78.80924 -55.92512,0 -105.93574,30.66416 -139.34986,78.80924 C 340.60961,912.87734 312.12884,901.076 285.11283,886.85633 295.51851,829.17621 281.85157,772.15939 242.30185,732.62351 202.19938,692.52104 144.13233,678.95086 85.636898,690.19946 69.966254,661.44231 57.321957,630.84725 47.690177,598.93939 c 48.062161,-33.42795 78.643403,-83.35566 78.643403,-139.2255 0,-55.88366 -30.608882,-105.82519 -78.684863,-139.25313 9.03757,-29.9594 20.769817,-58.758 35.155301,-85.96743 C 142.25296,246.72306 201.54989,233.48455 242.30185,192.73259 283.09526,151.93921 296.33383,92.57311 284.03495,33.05514 311.3688,18.573 340.31941,6.7716 370.44463,-2.3213 c 33.42794,48.07604 83.36947,78.6572 139.25313,78.6572 55.92512,0 105.8943,-30.65032 139.32223,-78.7676 31.24456,9.4106 61.13485,21.9029 89.35306,37.11743 -11.73225,58.96527 1.68591,117.62657 42.10621,158.04686 40.06101,40.06101 98.05897,53.65882 156.49918,42.47932 14.1091,26.78104 25.63398,55.06835 34.56102,84.51645 -48.65635,33.41412 -79.62452,83.67347 -79.62452,139.94407 z M 514.21654,236.49707 c -123.26465,0 -223.18918,99.89689 -223.18918,223.17536 0,123.29229 99.92453,223.18918 223.18918,223.18918 123.25084,0 223.17537,-99.89689 223.17537,-223.18918 0,-123.26466 -99.92453,-223.17536 -223.17537,-223.17536 z"
     unicode="xe003;" />
  <glyph
     glyph-name="message"
     id="glyph3671"
     d="m 500.58002,271.82778 416.38243,511.93071 c -7.80433,1.99721 -15.91078,3.15528 -24.31935,3.15528 H 108.5169 c -8.40854,0 -16.53177,-1.15807 -24.319318,-3.15528 L 500.58002,271.82778 z m 0,-167.83534 L 334.43992,308.24802 84.298278,0.7068 C 92.05226,-1.257 100.14192,-2.4317 108.5169,-2.4317 h 784.1262 c 8.37498,0 16.44789,1.158 24.20187,3.1385 L 666.72013,308.23123 500.58002,103.99244 z M 715.79512,385.38511 979.85031,60.72474 c 7.04908,13.57764 11.09389,28.93478 11.09389,45.26495 v 582.58976 c 0,10.2883 -1.59443,20.19059 -4.53152,29.52221 L 715.79512,385.38511 z M 14.713793,718.11845 C 11.776673,708.78679 10.18224,698.88453 10.18224,688.59624 V 106.0064 c 0,-16.34688 4.044828,-31.72074 11.093908,-45.26494 L 285.3313,385.40187 14.713793,718.11845 z"
     unicode="xe004;" />
  <glyph
     glyph-name="flag"
     id="glyph3969"
     unicode="xe005;"
     d="M 212.84538,958.9486 V 428.54765 c 0,0 80.55022,103.97149 216.78531,105.98919 136.23507,2.01772 112.35882,-81.30189 228.53547,-68.44392 155.68028,17.24944 289.00751,109.96526 339.64804,189.28901 -100.11405,-11.05785 -220.5635,0 -337.3336,40.1762 C 559.33788,730.37354 589.12878,850.19 452.89372,915.07326 313.67161,981.36101 212.86517,958.9486 212.84538,958.9486 z m -178.03354,3.67915 116.75031,0 0,-965.05945 -116.75031,0 z" />
  <glyph
     glyph-name="scale"
     id="glyph3979"
     d="m 546.44266,908.46024 c 0,0 283.2161,-58.43184 283.2161,-173.41637 0,-3.4291 0,-3.4291 0,-3.4291 l 0,0 0,0 c -6.04893,41.80757 -283.2161,152.95151 -283.2161,-23.24929 m 268.34752,-42.09561 c 0,0 -180.41172,-383.07145 -180.41172,-418.77522 0,-48.32286 0,-78.66352 185.7474,-78.66352 175.08974,0 175.08974,37.34974 175.08974,78.66352 -0.0137,41.34121 -180.42542,418.77522 -180.42542,418.77522 z M 698.47516,252.36397 813.78889,518.32484 929.13004,252.36397 H 698.47516 z m -510.8808,409.14631 c 0,0 -180.41173,-383.07145 -180.41173,-418.77522 0,-48.32286 0,-78.66352 185.74741,-78.66352 175.08976,0 175.08976,37.34974 175.08976,78.66352 -0.0137,41.34121 -180.42544,418.77522 -180.42544,418.77522 z M 71.29305,247.60438 186.60678,513.56526 301.94793,247.60438 H 71.29305 z m 384.66255,660.85558 90.50077,0 0,-910.89196 -90.50077,0 z m 0,2.8e-4 c 0,0 -283.2161,-58.43184 -283.2161,-173.41637 0,-3.4291 0,-3.4291 0,-3.4291 l 0,0 0,0 c 6.04893,41.80757 283.2161,152.95151 283.2161,-23.24929 M 814.79018,-2.4317 H 187.59436 l 0,0 c 0,0 154.37801,95.95983 313.59791,95.95983 177.98393,0 313.59791,-95.95983 313.59791,-95.95983 l 0,0 z"
     unicode="xe006;" />
  <glyph
     glyph-name="emblem-common"
     id="glyph3987"
     unicode="xe007;"
     d="M 993.08908,-2.4317 V 101.99403 H 831.15571 V -2.4317 H 993.08908 z M 420.07453,101.99403 H 584.09755 V 208.87655 H 420.07453 V 101.99403 z M 11.097117,-2.4317 H 173.03048 V 101.99403 H 11.097117 V -2.4317 z M 993.08908,305.81914 V 621.53908 H 916.26639 V 725.96485 H 669.22235 v 96.94259 H 334.94974 V 725.96485 H 87.90569 V 621.53908 H 11.097117 V 305.81914 H 253.99011 V 208.87655 H 173.03048 V 101.99403 h 169.31773 v 106.88252 h 77.72632 v 96.94259 h 164.02302 v -96.94259 h 77.72632 V 101.99403 h 169.33184 v 106.88252 h -80.95962 v 96.94259 H 993.08908 z M 416.95418,418.94236 H 252.94529 v 96.9567 h 164.00889 v -96.9567 z m 170.26371,0 v 96.9567 h 164.0089 v -96.9567 h -164.0089 z" />
  <glyph
     glyph-name="emblem-unfrequent"
     id="glyph3188"
     unicode="xe008;"
     d="m 902.32812,63.02679 v 90.4704 h -82.92371 v -90.4704 h 82.92371 z M 189.54057,791.2072 v -94.76781 h 82.9237 v 94.76781 h -82.9237 z M 94.772733,63.40113 H 177.71143 V 153.8865 H 94.772733 V 63.40113 z M 807.5603,791.2072 h -89.67681 v -0.37434 h 6.75309 v -94.78279 h 82.93869 v 95.15713 z m 94.76782,-95.14216 V 516.00768 H 807.5603 v 90.03617 h -82.93869 v 90.02119 h -90.0212 V 606.04385 H 366.8877 v 0.37434 h -4.38726 v 89.64685 h -83.28308 v 0.37435 H 272.4493 V 606.40322 H 189.52558 V 516.36705 H 94.757762 V 696.42442 H 4.7215966 V 333.9289 H 94.757762 v -85.28955 h 82.938698 v -94.76782 h 96.8192 v 94.76782 h 237.09175 v -0.37434 H 722.5852 v -94.76782 h 96.81921 v 94.76782 h 82.92371 v 85.28954 h 92.74639 V 696.0351 H 902.32812 z M 362.50044,425.16294 h -90.03617 v 91.21908 h 90.03617 v -91.21908 z m 362.13614,-0.37433 h -90.02119 v 91.21907 h 90.02119 v -91.21907 z" />
  <glyph
     glyph-name="user"
     id="glyph4516"
     d="m 886.05815,259.54279 c 0,79.94175 -80.73817,144.75167 -180.31976,144.75167 H 300.01893 c -99.58159,0 -180.31976,-64.79489 -180.31976,-144.75167 V -2.4317 h 766.35898 c 0,55.43319 0,261.97449 0,261.97449 z M 784.0421,742.76953 c 0,-154.06233 -124.89217,-278.95466 -278.95468,-278.95466 -154.06234,0 -278.95452,124.89233 -278.95452,278.95466 0,154.06236 124.89218,278.95467 278.95452,278.95467 154.06251,0 278.95468,-124.89231 278.95468,-278.95467 z"
     unicode="xe009;" />
  <glyph
     glyph-name="plus"
     id="glyph3878"
     d="M 20.806413,617.05404 H 377.31388 v 354.96931 c 0,10.75978 10.9938,19.48786 13.65898,19.48786 h 215.14962 c 2.64436,0 17.28194,-8.72808 17.28194,-19.48786 V 617.05404 h 356.50746 c 10.80639,0 19.55144,-14.96833 19.55144,-17.62199 V 386.93146 c 0,-2.63294 -8.76582,-14.90615 -19.55144,-14.90615 H 623.40442 V 17.0562 c 0,-10.7597 -15.03321,-19.4879 -17.67755,-19.4879 H 392.30544 c -2.64434,0 -14.97072,8.7282 -14.97072,19.4879 V 372.04606 H 20.827193 c -10.806377,0 -19.5514557,10.94636 -19.5514557,13.5793 v 214.22133 c -0.020878,2.65365 8.7450787,17.20735 19.5306757,17.20735 z"
     unicode="xe00a;" />
  <glyph
     glyph-name="spam"
     id="glyph6323"
     d="m 536.64961,772.17909 v 90.9246 c 32.73822,10.68912 56.54648,41.10168 56.54648,77.38803 0,45.1865 -36.62924,81.80058 -81.80084,81.80058 -45.15667,0 -81.78591,-36.61408 -81.78591,-81.80058 0,-36.30126 23.80825,-66.71382 56.53157,-77.38803 v -90.9246 H 198.65279 V -2.4317 H 824.10791 V 772.17909 H 536.64961 z M 294.88468,512.28589 c 0,45.17159 36.61434,81.78593 81.78593,81.78593 45.1716,0 81.80084,-36.61434 81.80084,-81.78593 0,-45.15668 -36.62924,-81.78593 -81.80084,-81.78593 -45.17159,0 -81.78593,36.62925 -81.78593,81.78593 z M 617.21307,135.42362 H 405.51782 V 250.88698 H 617.21307 V 135.42362 z m 24.0617,295.07634 c -45.17159,0 -81.78593,36.62925 -81.78593,81.78593 0,45.17159 36.61434,81.78593 81.78593,81.78593 45.17159,0 81.80084,-36.61434 81.80084,-81.78593 -0.0149,-45.15668 -36.62925,-81.78593 -81.80084,-81.78593 z"
     unicode="xe00b;" />
  <glyph
     glyph-name="uparrow"
     id="glyph6325"
     unicode="xe00c;"
     d="M 933.87031,461.60699 H 677.90673 V -2.4317 H 372.43339 V 461.60699 H 120.20971 l 406.8303,547.83601 406.8303,-547.83601 z" />
  <glyph
     glyph-name="normal"
     id="glyph6327"
     d="M 861.85354,331.69494 C 860.27805,576.85144 485.46112,713.79855 579.17292,1019.8992 283.64593,847.15502 146.69884,516.31599 146.69884,331.78583 c 0,-245.08076 196.49787,-334.21753 381.02803,-334.21753 184.53015,0 335.70217,88.97012 334.12667,334.12664 z"
     unicode="xe00d;" />
  <glyph
     glyph-name="home"
     id="glyph6329"
     d="M 501.4922,911.9707 2.813143,371.3609 H 99.71445 L 157.13794,433.61079 255.2525,-2.4317 H 405.2442 V 182.15804 H 597.72687 V -2.4317 h 149.9917 l 98.38122,437.25575 58.54343,-63.46315 h 95.51468 L 501.4922,911.9707 z m -0.0133,-570.91479 c -62.80985,0 -113.72703,50.89051 -113.72703,113.70037 0,62.84986 50.91718,113.74037 113.72703,113.74037 62.82319,0 113.72704,-50.89051 113.72704,-113.74037 0,-62.80986 -50.90385,-113.70037 -113.72704,-113.70037 z"
     unicode="xe00e;" />
  <glyph
     glyph-name="comment"
     id="glyph6331"
     unicode="xe00f;"
     d="M 75.770531,891.6497 H 923.55225 c 39.37085,0 71.27785,-51.97904 71.27785,-116.10536 V 338.28732 c 0,-64.11144 -31.907,-116.09048 -71.27785,-116.09048 H 767.39211 L 626.24879,30.20446 485.10548,222.19684 H 75.770531 c -39.370852,0 -71.277894,51.97904 -71.277894,116.09048 v 437.25702 c 0,64.12632 31.907042,116.10536 71.277894,116.10536 z" />
  <glyph
     glyph-name="irrelevant"
     id="glyph6333"
     unicode="xe010;"
     d="m 441.23469,783.81447 c 12.29497,-14.45273 24.03962,-35.48014 36.46491,-57.72403 14.17758,-25.41538 28.86202,-51.68517 46.61657,-72.53881 56.72481,-67.9481 122.09517,-96.9839 188.04481,-96.9839 101.61805,0 204.55393,68.91838 279.20712,170.27576 l -44.64713,80.70648 C 811.85021,624.15379 652.9281,633.97238 565.48763,738.704 c -12.30944,14.45273 -24.03961,35.48015 -36.4649,57.70954 -14.17759,25.41538 -28.86202,51.68517 -46.61657,72.53881 C 349.1456,1028.613 147.86453,1001.6771 14.227466,806.24662 L 60.742667,728.13236 C 153.94685,864.46303 318.90782,930.39818 441.23469,783.81447 z M 565.47315,233.56802 c -12.30944,14.45273 -24.03961,35.48015 -36.4649,57.70955 -14.17759,25.41537 -28.86202,51.68517 -46.61658,72.5388 C 349.13112,523.47705 147.85005,496.54111 14.212984,301.11064 l 46.515202,-78.11426 c 93.218664,136.31619 258.165154,202.26583 380.506504,55.68212 12.29497,-14.45273 24.03962,-35.48015 36.46491,-57.72404 14.17758,-25.41537 28.86202,-51.68516 46.61657,-72.53881 56.72481,-67.9481 122.09517,-96.98388 188.04481,-96.98388 101.61805,0 204.55393,68.91836 279.20712,170.27574 l -44.64713,80.70648 C 811.85021,119.01782 652.91362,128.8364 565.47315,233.56802 z m 0,252.57523 c -12.30944,14.45273 -24.03961,35.48015 -36.4649,57.70955 -14.17759,25.41538 -28.86202,51.68517 -46.61658,72.53881 C 349.13112,776.05229 147.85005,749.11633 14.212984,553.68587 l 46.515202,-78.11426 c 93.218664,136.31619 258.165154,202.26582 380.506504,55.68212 12.29497,-14.45273 24.03962,-35.48016 36.46491,-57.72404 14.17758,-25.41537 28.86202,-51.68516 46.61657,-72.5388 56.72481,-67.94812 122.09517,-96.98392 188.04481,-96.98392 101.61805,0 204.55393,68.91839 279.20712,170.27577 l -44.64713,80.70649 C 811.85021,371.57857 652.91362,381.39716 565.47315,486.14325 z" />
  <glyph
     glyph-name="tag-add"
     id="glyph6336"
     unicode="xe011;"
     d="m 890.81249,449.1461 c -41.6614,-23.98262 -89.84185,-37.90332 -141.36541,-37.90332 -85.09672,0 -161.24645,37.60328 -213.31327,96.88808 H 3.9423739 L 156.79972,305.37909 3.9423739,102.62733 H 846.34915 L 999.20649,305.37909 890.81249,449.1461 z M 844.84893,259.01457 c -28.27016,0 -51.18089,22.92495 -51.18089,51.19531 0,28.27037 22.92536,51.18111 51.18089,51.18111 28.28478,0 51.19552,-22.92516 51.19552,-51.18111 0,-28.27036 -22.92536,-51.19531 -51.19552,-51.19531 z m -95.40185,217.21551 c 120.99961,0 219.10311,98.10309 219.10311,219.10228 0,120.98499 -98.1035,219.08786 -219.10311,219.08786 -120.98499,0 -219.08849,-98.10287 -219.08849,-219.08786 0,-120.99919 98.1035,-219.10228 219.08849,-219.10228 z M 594.67581,728.00476 c 0,0.82951 2.71419,5.47392 6.05938,5.47392 h 110.56494 v 110.55157 c 0,3.35878 4.532,6.07443 5.35942,6.07443 h 66.71798 c 0.81489,0 4.23113,-2.71565 4.23113,-6.07443 V 733.47868 h 110.56493 c 3.3452,0 6.05938,-4.53053 6.05938,-5.35962 v -66.73115 c 0,-0.81489 -2.71418,-4.21629 -6.05938,-4.21629 H 787.60866 V 546.62006 c 0,-3.34436 -3.81742,-6.0598 -4.64692,-6.0598 h -66.18727 c -0.83578,0 -5.47434,2.71544 -5.47434,6.0598 V 657.17162 H 600.73519 c -3.34519,0 -6.05938,3.81616 -6.05938,4.64504 v 66.1881 z" />
  <glyph
     glyph-name="tag-del"
     id="glyph6338"
     unicode="xe012;"
     d="m 890.5618,448.93295 c -41.66217,-23.98259 -89.84177,-37.90331 -141.36578,-37.90331 -85.09687,0 -161.24676,37.60332 -213.3138,96.88758 H 3.691211 L 156.54817,305.16599 3.691211,102.4143 H 846.09825 L 998.9552,305.16599 890.5618,448.93295 z M 844.58335,258.80152 c -28.27026,0 -51.18102,22.9249 -51.18102,51.19517 0,28.27052 22.92494,51.18101 51.18102,51.18101 28.28447,0 51.19519,-22.9249 51.19519,-51.18101 0,-28.27027 -22.92493,-51.19517 -51.19519,-51.19517 z m 59.52776,281.38807 c 85.55409,85.55407 85.55409,224.29008 0,309.84438 -85.55431,85.55411 -224.27614,85.55411 -309.84462,0 -85.5541,-85.5543 -85.5541,-224.2759 0,-309.8302 85.56848,-85.56825 224.29031,-85.56825 309.84462,-0.009 z m -287.56274,241.18383 47.17914,47.17914 c 0.58605,0.58605 4.90233,1.0721 7.28908,-1.3 l 78.17943,-78.1792 78.17917,78.1792 c 2.37257,2.35836 7.48931,1.08605 8.06095,0.5 l 47.17911,-47.17914 c 0.57211,-0.57211 1.07211,-4.90233 -1.29999,-7.2749 l -78.17917,-78.17917 78.17917,-78.17943 c 2.37256,-2.37254 1.58605,-6.98885 1,-7.57487 l -46.8075,-46.80753 c -0.58605,-0.58605 -5.78839,-1.94418 -8.16095,0.41398 l -78.17918,78.1794 -78.1794,-78.1794 c -2.37256,-2.37257 -6.98908,-1.58605 -7.5749,-1.00003 l -46.79332,46.79332 c -0.58605,0.58605 -1.94421,5.78839 0.41395,8.16095 l 78.1794,78.1792 -78.1794,78.16499 c -2.34395,2.38698 -1.05813,7.5179 -0.48606,8.10395 z" />
  <glyph
     glyph-name="tracker-add"
     id="glyph6340"
     unicode="xe013;"
     d="M 499.99998,772.37119 C 363.02953,772.37119 3.9999755,621.45305 3.9999755,502 c 0,-119.46704 359.0295545,-270.3712 496.0000045,-270.3712 136.96873,0 496.00004,150.90415 496.00004,270.3712 0,119.45306 -359.03131,270.3712 -496.00004,270.3712 z m 0,-468.71804 c -111.43685,0 -201.77575,90.32426 -201.77575,201.77455 0,111.43633 90.3389,201.77454 201.77575,201.77454 111.43513,0 201.77402,-90.33821 201.77402,-201.77454 0.0136,-111.45029 -90.33889,-201.77455 -201.77402,-201.77455 z m 0,284.80971 c -47.76474,0 -86.47751,-38.71245 -86.47751,-86.46286 0,-47.75042 38.71277,-86.46286 86.47751,-86.46286 47.74939,0 86.46217,38.71244 86.46217,86.46286 0,47.75041 -38.71278,86.46286 -86.46217,86.46286 z" />
  <glyph
     glyph-name="tracker-del"
     id="glyph6342"
     unicode="xe014;"
     d="m 314.10079,426.85678 c -10.214,24.16169 -15.87946,50.70178 -15.87946,78.58487 0,111.43471 90.33614,201.77166 201.77125,201.77166 27.86922,0 54.42346,-5.65226 78.57139,-15.87933 l 55.85026,55.85027 c -52.57628,15.8513 -100.36825,25.19695 -134.42165,25.19695 -136.96673,0 -495.99259,-150.91602 -495.99259,-270.36726 0,-60.80286 93.06581,-129.72032 202.47186,-182.77249 L 314.10079,426.85678 z M 793.52813,684.78644 687.74636,579.00385 c 8.95291,-22.81853 14.03229,-47.58179 14.03229,-73.57621 0,-111.44871 -90.35096,-201.77166 -201.77125,-201.77166 -25.9951,0 -50.75876,5.09258 -73.57689,14.03256 l -60.85824,-60.8589 c 52.57629,-15.86532 100.38173,-25.19695 134.43513,-25.19695 136.96673,0 495.99261,150.902 495.99261,270.36725 0,60.81687 -93.0658,129.73434 -202.47188,182.7865 z M 500.0074,417.44107 c 46.6993,0 84.55886,37.85848 84.55886,84.55886 0,16.15916 -4.61725,31.21298 -12.49366,44.05627 l 340.15131,340.13811 -28.0228,28.02308 -340.15267,-340.13811 c -12.84261,7.86266 -27.89616,12.47951 -44.05586,12.47951 -46.70064,0 -84.55886,-37.85835 -84.55886,-84.55886 0,-16.15903 4.61725,-31.21285 12.48018,-44.05613 L 87.77606,117.80556 115.78405,89.78261 455.93672,429.93474 c 12.85743,-7.87669 27.91098,-12.49367 44.07068,-12.49367 z" />
  <glyph
     glyph-name="redundant"
     id="glyph6344"
     unicode="xe015;"
     d="m 471.24179,429.92061 96.16549,130.80138 h 106.3827 c 26.81829,0 48.56568,35.42065 48.56568,79.08147 v 297.91382 c 0,43.69102 -21.74739,79.09662 -48.56568,79.09662 H 96.19334 c -26.81828,0 -48.565687,-35.42069 -48.565687,-79.09662 V 639.80346 c 0,-43.67591 21.732314,-79.08147 48.565687,-79.08147 h 278.88295 l 96.1655,-130.80138 z M 898.16105,581.05076 H 773.71336 c -4.69358,-45.27567 -28.81041,-79.82098 -57.93775,-79.82098 H 586.89091 L 470.39665,342.76498 353.90237,501.22978 H 275.65094 V 206.24379 c 0,-43.41936 21.61158,-78.62874 48.27895,-78.62874 H 601.18292 L 696.77493,-2.4317 792.38202,127.61505 h 105.76393 c 26.66739,0 48.27897,35.20938 48.27897,78.62874 v 296.17824 c 0,43.41935 -21.59649,78.62873 -48.26387,78.62873 z" />
  <glyph
     glyph-name="lol"
     id="glyph6346"
     d="M 501.10028,985.95821 C 228.16271,985.95821 6.9197393,764.70081 6.9197393,491.74882 6.9197393,218.81126 228.17715,-2.4317 501.10028,-2.4317 c 272.95199,0 494.20941,221.25739 494.20941,494.18052 0,272.95199 -221.27186,494.20939 -494.20941,494.20939 z M 714.41799,712.84743 c 88.21716,0 157.32131,-67.86266 157.32131,-154.49187 h -76.76955 c 0,33.15903 -37.63413,62.24715 -80.56618,62.24715 -42.91762,0 -80.56617,-29.08812 -80.56617,-62.24715 h -76.76955 c 0,86.62921 69.13302,154.49187 157.35014,154.49187 z m -426.63544,0 c 88.23157,0 157.33572,-67.86266 157.33572,-154.49187 h -76.76955 c 0,33.15903 -37.64856,62.24715 -80.56617,62.24715 -42.90319,0 -80.55173,-29.08812 -80.55173,-62.24715 h -76.76955 c 0,86.62921 69.10414,154.49187 157.32128,154.49187 z M 871.7393,434.81404 c 0,-179.85555 -165.95391,-325.6715 -370.65346,-325.6715 -204.69956,0 -370.63901,145.81595 -370.63901,325.6715 v 0 l 741.29247,0 0,0 z"
     unicode="xe016;" />
  <glyph
     glyph-name="zoom"
     id="glyph6348"
     d="M 986.79928,108.83512 627.77167,424.71204 c 43.2221,57.50097 68.83837,128.99522 68.83837,206.48659 0,190.03734 -154.0546,344.10624 -344.1062,344.10624 -190.05162,0 -344.106248,-154.0689 -344.106248,-344.10624 0,-190.05162 154.068898,-344.10623 344.106248,-344.10623 84.91636,0 162.57907,30.81379 222.59311,81.80359 L 889.48888,11.5818 c 20.44729,-20.4901 58.82889,-15.264 85.67308,11.5803 26.90144,26.85845 32.09894,65.2257 11.63732,85.67302 z M 352.53239,373.10825 c -142.53158,0 -258.076118,115.53026 -258.076118,258.07611 0,142.51729 115.544538,258.0761 258.076118,258.0761 142.53157,0 258.07608,-115.55881 258.07608,-258.0761 0,-142.53157 -115.55879,-258.07611 -258.07608,-258.07611 z"
     unicode="xe017;" />
  <glyph
     glyph-name="interesting"
     id="glyph6350"
     unicode="xe018;"
     d="m 798.72485,653.22496 c 0,225.31323 -129.71069,362.85734 -289.71638,362.85734 -160.02052,0 -289.73121,-137.54411 -289.73121,-362.85734 0,-158.26989 89.80199,-311.34689 180.58315,-388.44931 0,0 -0.0148,-0.16319 -0.0148,-0.25221 0,0 -5.13324,-59.16575 25.23594,-59.16575 h 169.99028 c 26.80856,0 23.36662,54.81882 23.0699,58.8987 91.07785,76.89472 180.58312,230.32778 180.58312,388.96857 z M 399.83074,112.39564 h 218.26645 v 38.3806 H 399.83074 l 0,-38.3806 z M 462.17139,-0.4317 h 93.55548 c 29.96861,-0.015 54.96718,35.44304 60.97574,58.26073 H 401.22532 C 407.23388,35.01134 432.21761,-0.4169 462.17139,-0.4317 z" />
  <glyph
     glyph-name="tag"
     id="glyph6352"
     d="M 843.17668,601.78572 H 10.022402 L 161.20043,401.26104 10.022402,200.73634 H 843.17668 l 151.17803,200.5247 -151.17803,200.52468 z m -1.48421,-246.36577 c -27.95981,0 -50.63298,22.67318 -50.63298,50.63298 0,27.95981 22.67317,50.61884 50.63298,50.61884 27.9598,0 50.63297,-22.67317 50.63297,-50.61884 -0.0142,-27.97394 -22.67317,-50.63298 -50.63297,-50.63298 z"
     unicode="xe019;" />
  <glyph
     glyph-name="bookmark"
     id="glyph6354"
     unicode="xe01a;"
     d="M 787.7544,1014.049 V -2.4317 L 523.3939,454.69564 259.01867,-2.4317 V 1014.049 H 787.7544 z" />
  <glyph
     glyph-name="star-half"
     id="glyph6356"
     d="M 977.35257,562.93659 645.68093,611.11593 497.35257,911.67068 349.01076,611.11593 17.352573,562.93659 257.34585,328.98602 200.6824,-1.3368 497.33912,154.62564 793.99572,-1.3368 l -56.65,330.32282 240.00685,233.95057 z m -480,-290.24982 V 732.37373 L 587.42588,549.86666 788.82981,520.61095 643.09113,378.5681 677.49918,177.98705 497.35257,272.68677 z"
     unicode="xe01b;" />
  <glyph
     glyph-name="deep"
     id="glyph6358"
     d="M 946.82002,686.84152 H 752.22416 v 79.76225 c 57.53132,16.60521 82.71112,59.73581 82.71112,110.51052 0,65.07524 -34.01205,117.85403 -139.26902,117.85403 -97.05457,0 -138.22404,-52.79311 -138.22404,-117.85403 0,-51.333 23.51928,-94.86441 82.71111,-111.04017 v -79.2326 H 365.6664 c -29.4313,0 -53.30845,-23.90578 -53.30845,-53.42297 V 398.24044 H 232.5957 c -16.59089,57.54535 -59.72149,82.72513 -110.4962,82.72513 -65.089545,0 -117.854023,-34.02635 -117.854023,-139.25441 0,-97.06889 52.764478,-138.25266 117.854023,-138.25266 51.31868,0 94.85009,23.51927 111.04017,82.69679 h 79.21828 V 50.97689 c 0,-29.48849 23.87715,-53.40859 53.30845,-53.40859 h 274.48693 v 79.23254 c -59.19183,16.17577 -82.71111,59.70717 -82.71111,111.02586 0,65.10386 41.16947,117.85402 138.22404,117.85402 105.25697,0 139.26902,-52.76447 139.26902,-117.85402 0,-50.7604 -25.1798,-93.91963 -82.71112,-110.51052 V -2.4317 h 194.59586 c 29.45992,0 53.32278,23.9344 53.32278,53.40859 v 582.42735 c -0.014,29.54582 -23.87717,53.43728 -53.32278,53.43728 z"
     unicode="xe01c;" />
  <glyph
     glyph-name="flame"
     id="glyph6360"
     d="m 790.28627,774.87643 c -9.30471,-86.64915 6.2331,-149.5196 -46.62842,-170.43647 C 714.17046,666.38145 655.2856,930.8539 466.44949,1020.7095 533.85992,803.91431 347.31627,524.80306 303.08519,504.1559 239.31573,545.07563 264.89244,640.60995 281.29929,731.36456 117.87507,604.63475 -85.524939,84.06589 358.50889,-0.6354 c -191.89274,90.32007 -11.70206,363.97736 88.32729,460.38042 19.4335,-47.15284 17.65048,-88.31201 67.30555,-116.4359 41.50409,28.13887 64.80332,94.67997 19.71819,211.20607 C 666.19354,497.62312 857.93644,131.54836 682.64534,9.5683 1129.3612,128.67154 872.62019,697.35219 790.28627,774.87643 z"
     unicode="xe01d;" />
  <glyph
     glyph-name="lock"
     id="glyph6362"
     d="m 838.62525,525.08826 c 0,0 0,173.38932 0,218.6386 0,143.01496 -91.00952,267.09564 -330.47017,267.09564 -239.47484,0 -328.95145,-124.08068 -328.95145,-267.09564 0,-45.24928 0,-218.6386 0,-218.6386 H 68.152709 V -2.4317 H 949.67617 V 525.08826 H 838.62525 z m -569.16436,0 c 0,0 0,149.37371 0,218.6386 0,141.07044 117.43805,178.14418 238.70839,178.14418 121.25613,0 240.2271,-37.05955 240.2271,-178.14418 0,-69.26489 0,-218.6386 0,-218.6386 H 269.46089 z"
     unicode="xe01e;" />
  <glyph
     glyph-name="informativo"
     id="glyph6364"
     unicode="xe01f;"
     d="M 371.49273,1019.1715 H 673.44469 V 787.32771 L 615.13778,321.57195 H 428.41573 l -56.923,465.75576 V 1019.1715 z M 381.91011,250.77938 H 663.72687 V 1.5683 H 381.91011 v 249.21108 z" />
  <glyph
     glyph-name="female"
     id="glyph6366"
     d="m 863.54301,671.0576 c 0,193.62447 -156.96511,350.5896 -350.58959,350.5896 -193.62447,0 -350.58957,-156.96513 -350.58957,-350.5896 0,-173.60453 126.19896,-317.62763 291.84502,-345.5916 V 233.34091 H 306.05473 v -117.518 H 454.20887 V -2.4317 h 117.518 v 118.25461 h 148.15414 v 117.518 H 571.72687 V 325.466 c 165.63162,27.96397 291.81614,171.98707 291.81614,345.5916 z m -583.67561,0 c 0,128.7267 104.35933,233.08602 233.08602,233.08602 128.7267,0 233.08603,-104.35932 233.08603,-233.08602 0,-128.7264 -104.35933,-233.07129 -233.08603,-233.07129 -128.72669,0 -233.08602,104.34489 -233.08602,233.07129 z"
     unicode="xe020;" />
  <glyph
     glyph-name="male"
     id="glyph6368"
     d="M 701.30327,987.88259 577.70034,864.90072 H 783.18297 L 558.39136,640.12323 c -136.60261,94.78058 -325.51451,81.41392 -447.22605,-40.29763 -136.85667,-136.82816 -136.85667,-358.74036 0,-495.58292 136.84256,-136.84258 358.74064,-136.84258 495.59732,0 121.71154,121.71154 135.07821,310.63755 40.29763,447.22577 l 224.77749,224.7916 V 570.76332 l 123.0101,123.60292 V 987.8967 H 701.30327 z M 523.69729,187.29391 c -90.9696,-90.99784 -238.48292,-90.99784 -329.46664,0 -90.98372,90.9696 -90.98372,238.48292 0,329.46635 90.98372,90.99783 238.49704,90.96961 329.46664,0 90.98372,-90.98343 90.98372,-238.49675 0,-329.46635 z"
     unicode="xe021;" />
  <glyph
     glyph-name="access-denied"
     id="glyph6370"
     d="m 499.38821,970.32826 c -268.62269,0 -486.380119,-217.75716 -486.380119,-486.37986 0,-268.60889 217.757429,-486.3801 486.380119,-486.3801 268.6089,0 486.38013,217.75741 486.38013,486.3801 -0.0138,268.6227 -217.77123,486.37986 -486.38013,486.37986 z m 0,-143.88826 c 166.24359,0 304.77761,-118.45535 335.89567,-275.57741 H 163.47875 C 194.59681,707.97085 333.13083,826.44 499.38821,826.44 z m 0,-684.96966 c -162.89028,0 -299.10597,113.74997 -333.82573,266.09737 H 833.21395 C 798.48039,255.22031 662.2647,141.47034 499.38821,141.47034 z"
     unicode="xe022;" />
  <glyph
     glyph-name="error-404"
     id="glyph6372"
     unicode="xe023;"
     d="m 425.6668,682.54052 c 107.42266,-35.96435 266.23316,-27.58265 340.15751,-116.232 33.98297,-40.76816 71.31582,-80.93762 96.16159,-128.27715 27.45435,-52.30012 107.97862,2.10968 129.65976,-42.84933 C 1030.1759,315.27076 810.31291,303.66752 776.04486,356.6091 706.25433,464.40238 666.95441,559.25248 526.40405,521.14994 618.41749,413.98386 843.16982,329.19751 828.75842,175.0055 819.10806,71.67392 744.32837,60.29882 730.27334,167.20823 719.93875,245.66555 560.20171,327.48695 502.15698,373.61483 415.67433,442.36477 331.002,508.43484 256.7783,590.44155 250.12141,597.81118 181.94166,533.39464 147.87316,528.07768 112.49325,522.56114 77.013542,517.57204 41.61937,512.04126 -20.131555,502.39089 -7.4877246,572.13864 40.650058,574.83277 152.91929,581.14755 168.3,611.966 234.39858,699.26117 c -121.84832,39.25716 71.04493,181.10468 77.14589,49.70578 51.88675,23.42031 104.37219,0.92656 157.01442,-4.01979 50.64659,-4.76104 123.9865,15.46623 170.65606,0.44189 53.06988,-17.07701 32.98515,-53.48326 -9.1372,-53.06988 -28.62323,0.31361 -192.60815,16.37854 -204.41095,-9.77865 30.81844,-10.30608 0.88378,1.95288 0,0 z" />
  <glyph
     glyph-name="bold"
     id="glyph6374"
     unicode="xe024;"
     d="m 202.29195,757.17639 c 0,153.14378 -3.04055,168.30248 -66.71581,177.40944 l -40.951942,6.06639 c -13.645749,7.59405 -16.671612,53.0701 6.081092,54.58302 115.23241,7.57936 225.91134,13.64576 377.54223,13.64576 145.56444,0 242.59763,-16.67164 309.31343,-56.09596 65.2029,-39.4243 104.6272,-103.09958 104.6272,-192.55342 0,-127.36492 -107.65305,-177.40915 -154.65673,-189.52726 -15.15865,-3.04053 -30.31735,-9.10695 -30.31735,-16.68631 0,-4.53878 7.57935,-9.09226 21.22509,-12.11813 C 848.22505,516.12135 949.8117,437.27275 951.32463,290.19534 952.85225,150.7121 869.45013,68.8229 773.91521,35.47981 678.39495,2.1218 564.67547,-2.4317 472.18109,-2.4317 c -54.58299,0 -112.19185,6.0666 -156.16966,6.0666 -74.29516,0 -148.59032,-1.5131 -235.018296,-4.5535 -12.132821,9.107 -12.132821,48.51648 0,53.06996 l 43.977806,9.10692 c 68.22874,13.64577 77.32101,24.26541 77.32101,160.72299 v 535.19512 z m 209.23974,-147.0624 c 0,-39.42432 1.51292,-42.45016 80.36157,-42.45016 130.39108,0 178.92238,83.38712 178.92238,174.36858 0,131.90401 -81.87453,197.1069 -186.50173,197.1069 -71.2693,0 -72.78222,-12.13283 -72.78222,-78.84866 V 610.11399 z m 0,-350.2654 c 0,-118.27305 15.15866,-192.56801 133.41693,-192.56801 112.20654,0 171.34304,86.42804 171.34304,209.23963 0,131.90401 -75.80808,224.41309 -221.37256,224.41309 -83.38741,0 -83.38741,-1.52763 -83.38741,-62.16233 V 259.84859 z" />
  <glyph
     glyph-name="italic"
     id="glyph6376"
     unicode="xe025;"
     d="m 616.40899,51.00777 c 9.15198,-9.16642 4.576,-44.27307 -10.68212,-53.43947 -80.9099,3.0603 -158.77395,4.576 -229.00171,4.576 -76.3339,0 -145.03153,-1.5157 -221.35099,-4.576 -15.25812,9.1664 -13.74242,48.86347 10.68212,53.43947 l 41.2128,7.59297 c 65.63734,12.24114 77.86405,21.39312 122.1227,163.34992 l 178.62249,567.92827 c 38.16694,123.65285 39.69708,149.60753 -38.16695,163.34994 l -42.74295,7.63628 c -10.68212,9.16642 -9.15199,45.78875 10.69656,53.42505 85.48589,-3.0458 161.81979,-4.576 235.09341,-4.576 70.22782,0 138.92544,1.5302 215.25935,4.576 15.25812,-9.152 12.21227,-47.31892 -7.63628,-53.42505 l -44.27309,-7.63628 C 770.60699,942.54674 758.38029,931.86462 714.12158,789.87893 L 535.49909,221.95066 C 495.802,98.29783 495.802,72.35759 573.66605,58.60074 l 42.74294,-7.59297 z" />
  <glyph
     glyph-name="quote"
     id="glyph6378"
     unicode="xe026;"
     d="m 11.368565,426.20793 c 0,189.90694 182.870205,344.65848 443.116185,407.94666 32.82394,-11.72788 42.19212,-51.56029 23.44164,-79.70721 C 353.66734,719.27785 243.48176,623.1516 243.48176,529.35679 c 0,-51.5603 28.13278,-84.39838 75.03019,-110.18559 28.13279,-14.07346 44.5377,-46.8974 44.5377,-86.74395 0,-77.3899 -65.64789,-150.04626 -152.39184,-150.04626 -86.74395,0.0141 -199.289245,75.03019 -199.289245,243.82694 z m 506.418495,0 c 0,189.90694 182.85607,344.65848 443.10206,407.94666 32.82395,-11.72788 42.19208,-51.56029 23.44163,-79.70721 C 860.08583,719.27785 749.88612,623.1516 749.88612,529.35679 c 0,-51.5603 28.1328,-84.39838 75.0302,-110.18559 28.13279,-14.07346 44.53769,-46.8974 44.53769,-86.74395 0,-77.3899 -65.64788,-150.04626 -152.39184,-150.04626 -86.74395,0 -199.27511,75.03019 -199.27511,243.82694 z" />
  <glyph
     glyph-name="code"
     id="glyph6380"
     unicode="xe027;"
     d="M 4.2187689,417.52176 412.9108,145.96614 V 321.49021 L 128.21272,494.31094 412.9108,660.86542 V 837.70651 L 4.2187689,567.80065 V 417.52176 z M 590.5837,837.67878 V 660.83769 L 875.28174,494.28321 590.5837,321.46249 V 145.93841 L 999.27569,417.49403 V 567.77292 L 590.5837,837.67878 z" />
  <glyph
     glyph-name="image"
     id="glyph6382"
     unicode="xe028;"
     d="M 12.991912,876.71362 V -0.4317 H 993.11522 V 876.71362 H 12.991912 z M 887.8418,190.12719 H 118.26533 V 764.44305 H 887.85555 V 190.12719 z M 765.63226,456.10108 656.72967,371.75037 453.44117,650.67407 221.10556,261.51461 h 588.09048 l -43.56378,194.58647 z" />
  <glyph
     glyph-name="undo"
     id="glyph6384"
     unicode="xe029;"
     d="M 499.63094,429.4983 C 556.29216,371.59098 650.96698,274.80511 650.96698,274.80511 L 13.048125,110.8614 190.87494,745.07125 c 0,0 15.77425,-16.08211 134.40364,-137.36498 410.24776,401.40773 922.55902,-21.56498 522.99846,-610.13797 25.77242,412.43209 -118.46813,611.10554 -348.6461,431.93 z" />
  <glyph
     glyph-name="redo"
     id="glyph6386"
     unicode="xe02a;"
     d="m 153.32207,-2.4317 c -399.5605,588.5729 112.75068,1011.5456 522.99838,610.13788 118.62937,121.28285 134.40362,137.36496 134.40362,137.36496 L 988.55079,110.86138 350.63209,274.80507 c 0,0 94.6748,96.78585 151.33602,154.69317 C 271.79018,608.67374 127.53499,410.00033 153.32207,-2.4317 z" />
  <glyph
     glyph-name="insert-link"
     id="glyph6388"
     unicode="xe02b;"
     d="m 251.79528,291.6864 c -49.34026,29.44635 -88.88854,72.70009 -112.30473,124.5623 35.84283,-15.23039 71.72793,-27.24844 107.48623,-36.12462 6.91778,-29.71404 16.04756,-59.0336 26.98075,-87.90229 h 63.1899 c -8.76346,25.19142 -16.32934,50.12924 -22.28905,74.84164 59.65352,-8.3267 118.75756,-8.22807 176.66403,-0.14089 -6.10061,-24.57151 -13.76512,-49.50933 -22.6272,-74.7712 h 33.03909 c 9.58063,0 18.80903,-2.28244 27.62885,-6.19923 12.44073,31.51746 22.55675,63.04901 30.12263,94.46785 35.54697,8.91844 70.48809,21.04921 104.79521,35.64558 C 638.54284,358.70855 592.87986,311.90435 536.0019,282.7116 c 22.93716,-12.91976 42.14069,-38.4916 54.6096,-71.50251 18.25956,48.46673 51.11549,80.94225 88.73356,80.94225 h 34.41983 c 49.2698,65.31737 78.60344,146.47095 78.60344,234.58459 0,215.5783 -174.77608,390.34029 -390.35438,390.34029 -215.59239,0 -390.354385,-174.76199 -390.354385,-390.34029 0,-128.69043 62.302284,-242.79857 158.362205,-313.90658 17.32967,44.84581 47.24097,75.41929 81.77351,78.80069 z M 684.8821,568.31305 c 2.11337,-13.58195 3.56456,-27.34707 3.56456,-41.50668 0,-13.92009 -1.40892,-27.48796 -3.46594,-40.87266 -38.16754,-15.54035 -75.61654,-28.27696 -112.58651,-37.75896 7.0164,53.01752 7.14321,105.52784 1.12713,157.1928 36.35005,-9.41156 73.40455,-21.8382 111.36076,-37.0545 z m -21.04921,70.45991 c -33.95489,14.41322 -67.90977,25.99451 -101.76604,34.67343 -7.6645,33.91262 -18.02004,67.34621 -30.91162,100.17396 58.7659,-28.75598 105.86598,-76.41963 132.67766,-134.84739 z M 351.43385,799.02311 c 16.44205,2.83193 33.29269,4.56489 50.5801,4.56489 19.4994,0 38.53386,-1.93021 56.93431,-5.50886 14.54002,-37.64625 26.43127,-74.65848 35.03975,-111.20577 -60.16073,8.84799 -119.77198,9.1016 -178.19975,1.21167 8.848,36.22324 20.9365,73.16503 35.64559,110.93807 z M 302.8685,620.85154 c 67.75479,10.20056 134.93192,9.79197 203.75749,-1.40891 8.25625,-61.4992 7.55179,-122.618 -1.84568,-185.01891 -67.4871,-10.5246 -134.35427,-10.53869 -202.79943,0.14089 -8.66484,61.96415 -8.34078,123.50562 0.88762,186.31511 z m -22.33133,156.33337 c -13.73693,-34.0676 -24.62786,-68.1352 -32.68686,-102.09008 -36.5332,-8.96071 -72.40421,-21.28873 -107.61303,-36.23733 27.96699,60.87927 77.99761,110.05046 140.29989,138.32741 z M 118.96264,486.41274 c -2.00066,13.21563 -3.3814,26.64261 -3.3814,40.39363 0,14.34277 1.47936,28.31922 3.64909,42.07025 39.36513,16.04755 77.95535,29.08003 116.06654,38.63249 -6.94596,-53.76426 -6.77689,-107.04948 -0.33814,-159.4189 -37.81532,9.55245 -76.40554,22.42995 -115.99609,38.32253 z M 459.07506,110.49975 h 262.80518 v 39.23832 H 459.07506 v -39.23832 z m 492.81079,130.14161 h -301.2686 c -7.38272,0 -23.85295,-30.29171 -30.71438,-72.65782 h 73.27775 c 5.80473,13.03247 13.48333,19.4994 17.01971,19.4994 h 182.08836 c 6.04425,0 24.33198,-18.30182 24.33198,-57.37108 0,-39.04107 -18.28773,-57.32881 -24.33198,-57.32881 H 710.20033 c -3.53638,0 -11.21498,6.48102 -17.01971,19.49941 H 619.90287 C 626.7643,49.91634 643.23453,19.6106 650.61725,19.6106 h 301.2686 c 9.42562,0 33.81396,49.49518 33.81396,110.51535 0,61.03426 -24.38834,110.51541 -33.81396,110.51541 z M 471.07903,72.76896 H 288.97658 c -6.04425,0 -24.3179,18.30183 -24.3179,57.32881 0,39.06926 18.27365,57.37108 24.3179,57.37108 h 182.10245 c 3.53638,0 11.21498,-6.46693 17.01971,-19.4994 h 73.27774 c -6.86142,42.36611 -23.33165,72.65782 -30.71437,72.65782 h -301.2686 c -9.42565,0 -33.814,-49.49524 -33.814,-110.54359 0,-61.02017 24.38835,-110.51538 33.814,-110.51538 h 301.2686 c 7.38272,0 23.85295,30.30577 30.71437,72.67189 H 488.09874 C 482.29401,79.24998 474.61541,72.76896 471.07903,72.76896 z" />
  <glyph
     glyph-name="bet"
     id="glyph6390"
     unicode="xe02c;"
     d="m 306.17512,644.93962 c -48.08501,-29.04985 -99.31331,-66.93013 -140.39536,-82.04715 47.90957,-6.05267 79.31321,4.45907 92.29574,10.23395 -7.61701,-3.99124 -20.92116,-11.54976 -36.16976,-22.54395 13.85971,1.98831 27.93872,3.34796 42.35399,3.34796 5.52634,0 10.9211,-0.52632 16.37435,-0.83333 63.59677,99.72267 139.79595,221.68228 139.79595,221.68228 C 323.00268,759.41382 223.87943,778.20045 109.376,814.09242 235.83855,720.08615 352.35954,706.40188 369.14325,716.6797 323.01731,667.11808 157.2417,684.19417 95.019205,619.98337 205.09279,621.00676 265.56091,648.05367 306.17512,644.93962 z M 264.28898,514.95365 C 121.43745,514.95365 5.6182182,399.1198 5.6182182,256.25366 5.6182182,113.40213 121.43745,-2.4317 264.28898,-2.4317 c 142.86614,0 258.68536,115.84846 258.68536,258.68536 0,142.86614 -115.81922,258.69999 -258.68536,258.69999 z m 0,-482.69223 c -123.6994,0 -223.963003,100.27822 -223.963003,223.97761 0,123.69939 100.263603,223.97762 223.963003,223.97762 123.69938,0 223.97761,-100.27823 223.97761,-223.97762 0,-123.69939 -100.27823,-223.97761 -223.97761,-223.97761 z m 16.87141,325.14766 c 24.95625,0 41.49142,-4.75149 54.72246,-10.65794 l 7.71934,26.08199 c -10.65794,5.14622 -33.07032,11.37432 -61.7108,11.37432 -61.34531,0 -105.00047,-29.53229 -123.78711,-74.69333 h -35.68729 v -24.7077 h 28.24574 c -1.34503,-6.68132 -2.19299,-13.58194 -2.58773,-20.67261 h -25.65801 v -25.74573 h 26.44748 c 3.42107,-30.74575 15.58487,-56.87161 33.49431,-74.18162 24.23987,-23.12876 55.08796,-32.67559 92.54427,-32.67559 33.42121,0 61.71081,8.42109 76.02374,13.59655 v 119.021 H 181.77398 c 0.32164,7.2515 1.18422,14.18136 2.60235,20.67261 h 166.56508 v 24.70772 h -157.7785 c 15.80417,30.58493 47.06163,47.88033 87.99748,47.88033 z M 319.72782,238.4027 v -73.81612 c -7.35383,-3.66961 -21.66677,-6.5936 -42.60254,-6.5936 -51.43298,0 -87.04717,29.50305 -94.15247,80.40972 H 319.72782 z M 989.01446,568.60887 C 936.99668,620.01261 880.18356,641.51855 849.39394,692.51293 784.48137,800.13037 645.03629,866.08096 645.03629,866.08096 l 30.21944,126.14092 c 0,0 -46.33062,-51.62304 -94.16709,-111.43325 C 521.33691,834.92585 387.08192,715.70016 302.72482,551.19651 443.99738,532.93619 553.9394,415.80116 561.22013,271.37068 c 14.503,-0.74561 23.27496,-0.67252 23.27496,-0.67252 0,0 -23.91824,266.55092 37.96801,259.73801 125.36606,-13.84508 133.20235,-29.47381 254.29939,-63.21666 121.06779,-33.80131 132.00351,81.87172 112.25197,101.38936 z M 718.38459,720.43703 c -17.74863,0 -32.13466,8.55267 -32.13466,19.09365 0,10.54099 14.38603,19.10828 32.13466,19.10828 17.74861,0 32.12002,-8.56729 32.12002,-19.10828 0,-10.54098 -14.37141,-19.09365 -32.12002,-19.09365 z" />
  <glyph
     glyph-name="rss"
     id="glyph6392"
     unicode="xe02d;"
     d="M 133.00142,262.12337 C 59.695602,262.12337 0.13462598,202.17461 0.13462598,128.89751 0.13462598,55.41935 59.695602,-3.9118 133.00142,-3.9118 c 73.59307,0 133.15404,59.33115 133.15404,132.80931 0,73.2771 -59.56097,133.22586 -133.15404,133.22586 z M 8.7089937,648.02736 V 473.59571 C 132.84343,471.28336 249.27961,421.74736 337.39309,333.37536 425.44912,245.20443 474.89895,128.35174 477.16821,3.5279 H 652.18872 C 647.43476,356.78611 361.42143,643.2734 8.7089937,648.02736 z M 9.0536919,988.97697 V 814.58841 C 453.0537,809.777 813.33513,448.59073 818.13218,3.5423 H 992.80799 C 988.01094,544.74717 549.38248,984.10811 9.0536919,988.97697 z" />
  <glyph
     glyph-name="warning"
     id="glyph6394"
     unicode="xe02e;"
     d="M 971.34747,229.73316 588.75252,892.355 c -23.90251,41.43851 -55.42507,62.1296 -86.93356,62.1296 -31.50848,0 -63.03105,-20.69109 -86.93355,-62.1296 L 32.290455,229.73316 C -15.528632,146.89838 23.614002,79.10655 119.23809,79.10655 h 765.16175 c 95.61,0 134.75266,67.79183 86.94763,150.62661 z m -52.81931,-69.84827 c -1.16907,-1.53528 -10.90191,-7.83134 -34.12832,-7.83134 H 119.22401 c -23.226417,0 -32.959256,6.29606 -34.057898,7.71866 -0.760598,1.76065 -1.324004,13.33864 10.28216,33.48041 L 478.04323,855.88854 c 11.62025,20.1136 21.91649,25.4237 23.69122,25.64906 1.92967,-0.22536 12.24,-5.53546 23.84616,-25.64906 L 908.17557,193.25262 c 11.62025,-20.14177 11.02867,-31.70568 10.35259,-33.36773 z M 501.80488,347.35825 c -30.14222,0 -54.56588,-24.42365 -54.56588,-54.56587 0,-30.15631 24.42366,-54.57996 54.56588,-54.57996 30.15631,0 54.57996,24.42365 54.57996,54.57996 0,30.14222 -24.42365,54.56587 -54.57996,54.56587 z m 49.86143,273.097 H 451.95753 V 388.58549 h 99.70878 v 231.86976 z" />
  <glyph
     glyph-name="event"
     id="glyph6396"
     unicode="xe02f;"
     d="m 920.52928,898.22777 h -48.33225 v 14.30335 c 0,42.84774 -35.05724,77.90498 -77.90497,77.90498 h -1.153 c -42.84774,0 -77.90498,-35.05724 -77.90498,-77.90498 v -14.30335 h -430.8457 v 14.30335 c 0,42.84774 -35.05725,77.90498 -77.90499,77.90498 h -1.153 c -42.84773,0 -77.90497,-35.05724 -77.90497,-77.90498 V 898.22777 H 79.155486 c -42.847736,0 -77.9049769,-35.05724 -77.9049769,-77.90499 V 75.47326 C 1.2505091,32.62552 36.30775,-2.4317 79.155486,-2.4317 H 920.52928 c 42.84775,0 77.90499,35.05722 77.90499,77.90496 v 744.84952 c 0,42.84775 -35.05724,77.90499 -77.90499,77.90499 z m -174.13321,14.30335 c 0,25.7398 20.94086,46.74298 46.74299,46.74298 h 1.153 c 25.7398,0 46.74298,-21.00318 46.74298,-46.74298 V 773.93816 c 0,-25.73981 -21.00318,-46.743 -46.74298,-46.743 h -1.153 c -25.80213,0 -46.74299,21.00319 -46.74299,46.743 v 138.59296 z m -587.80866,0 c 0,25.7398 20.94086,46.74298 46.74298,46.74298 h 1.153 c 25.73981,0 46.74299,-21.00318 46.74299,-46.74298 V 773.93816 c 0,-25.73981 -21.00318,-46.743 -46.74299,-46.743 h -1.153 c -25.80212,0 -46.74298,21.00319 -46.74298,46.743 V 912.53112 z M 936.11028,75.48883 c 0,-8.39815 -7.12052,-15.58099 -15.581,-15.58099 H 79.155486 c -8.460472,0 -15.580991,7.18284 -15.580991,15.58099 V 623.12969 H 936.11028 V 75.48883 z m -587.88656,122.9964 c -13.08805,0 -23.8701,3.97315 -32.34616,11.95062 -8.47606,7.96189 -14.72403,22.28082 -18.74393,42.91006 L 194.70416,239.75928 c 6.71541,-22.99754 16.3133,-42.08427 28.80926,-57.26016 12.49596,-15.19147 28.45089,-26.72141 47.81808,-34.62098 19.39834,-7.8684 45.83929,-11.82597 79.40075,-11.82597 34.40285,0 62.16818,5.32871 83.31159,15.9861 21.14341,10.6574 37.33206,25.8333 48.58155,45.54325 11.23389,19.70997 16.85864,40.30805 16.85864,61.79424 0,17.10793 -3.39667,31.83198 -10.18998,44.15654 -6.79332,12.34015 -16.3133,22.28083 -28.55996,29.83761 -7.55679,4.68987 -18.46348,8.80326 -32.7201,12.32457 17.62211,9.73812 30.78805,21.0655 39.51341,33.98215 8.72536,12.91664 13.10362,27.34464 13.10362,43.29959 0,27.17326 -10.7353,49.73453 -32.2215,67.69943 -21.48619,17.9493 -56.29414,26.92396 -104.455,26.92396 -41.94404,0 -74.35252,-8.22676 -97.27215,-24.66472 -22.90408,-16.45353 -38.376,-40.10549 -46.43137,-70.97143 l 96.89821,-17.37282 c 2.66434,18.27651 7.79049,31.08409 15.34728,38.39158 7.5412,7.2919 17.35723,10.93785 29.44809,10.93785 11.74807,0 20.97201,-3.3499 27.68742,-10.06532 6.71541,-6.71541 10.06532,-15.69006 10.06532,-26.92396 0,-11.74808 -4.48732,-21.90689 -13.46197,-30.46084 -8.97466,-8.55397 -20.1774,-12.83875 -33.59263,-12.83875 -3.20969,0 -7.65027,0.40511 -13.33734,1.26206 L 314.02342,301.647 c 14.08523,4.03548 25.16331,6.04542 33.2187,6.04542 15.11356,0 27.06418,-4.70546 35.88303,-14.10079 8.80326,-9.41093 13.21268,-22.65478 13.21268,-39.76271 0,-16.78073 -4.58081,-30.19597 -13.72686,-40.2613 -9.19279,-10.04973 -20.62923,-15.08239 -34.38725,-15.08239 z M 670.12709,388.24618 V 142.36248 H 773.81863 V 517.61519 H 689.01126 C 678.08899,494.46183 662.991,475.00116 643.70172,459.21761 624.39688,443.44965 597.30152,429.94092 562.40008,418.69144 v -84.05948 c 23.66754,7.21401 43.33076,14.75522 59.0364,22.65478 15.6589,7.88398 31.90988,18.1986 48.69061,30.95944 z" />
  <glyph
     glyph-name="poll"
     id="glyph6398"
     unicode="xe030;"
     d="M 544.77887,977.06727 V 530.73281 H 991.11334 C 991.09693,777.2351 791.28117,977.06727 544.77887,977.06727 z M 451.70097,890.2372 C 205.19867,890.2372 5.366509,690.40504 5.366509,443.90273 5.366509,197.40044 205.19867,-2.4317 451.70097,-2.4317 c 246.5023,0 446.33445,199.83214 446.33445,446.33443 H 451.70097 V 890.2372 z" />
  <glyph
     glyph-name="news"
     id="glyph6400"
     unicode="xe031;"
     d="M 905.66477,664.49566 V 892.0044 H 8.5612029 c 0,0 0,-742.45549 0,-822.32409 0,-79.86861 81.9821241,-72.10981 81.9821241,-72.10981 0,0 767.831553,0 841.651623,0 63.0022,0 63.0022,64.21194 63.0022,64.21194 V 664.48175 H 905.66477 z M 850.64387,81.62444 H 63.596014 V 835.14806 H 850.64387 V 81.62444 z M 457.09908,579.06517 H 136.70693 V 166.80465 H 457.09908 V 579.06517 z M 782.55254,751.44176 H 136.72085 v -80.32747 h 645.83169 v 80.32747 z M 563.92891,498.7238 h 218.62363 v 80.32746 H 563.92891 V 498.7238 z m 0,-159.01417 h 218.62363 v 80.32746 H 563.92891 v -80.32746 z m 0,-159.01418 H 686.9299 v 80.32747 H 563.92891 v -80.32747 z" />
  <glyph
     glyph-name="funthing"
     id="glyph6403"
     unicode="xe032;"
     d="m 981.13275,103.04233 c -12.54759,-1.14339 -23.83301,-1.63341 -33.97503,-1.63341 -51.03678,0.20789 -70.32593,12.4585 -78.01782,20.25434 -7.76615,7.75129 -11.28542,18.79912 -11.43391,34.89568 -0.0297,9.71139 1.61857,19.86826 3.45987,27.61956 75.22618,85.30879 120.96179,197.24225 120.96179,319.9117 0,267.3306 -216.70959,484.02534 -484.04019,484.02534 -267.3306,0 -484.025337,-216.69474 -484.025337,-484.02534 0,-267.31575 216.709587,-484.0402 484.025337,-484.0402 97.30697,0 187.813,28.80751 263.70739,78.22573 6.45941,-17.64088 16.49749,-35.32631 32.13372,-51.14073 33.64834,-33.9899 85.17516,-51.6308 152.02637,-51.6308 0.40093,0 0.80185,0 1.21763,0 13.73554,0 28.16898,0.6683 43.52308,2.0641 l -9.5629,105.47403 z M 233.38518,367.9822 c -65.78207,0 -119.10564,60.94122 -119.10564,136.12285 0,75.18162 53.32357,136.13769 119.10564,136.13769 65.78206,0 119.10563,-60.94122 119.10563,-136.13769 0,-75.19648 -53.30872,-136.12285 -119.10563,-136.12285 z M 498.10231,120.26743 c -75.18163,0 -136.12284,53.32357 -136.12284,119.12048 0,65.79692 60.92637,119.12049 136.12284,119.12049 75.19648,0 136.12285,-53.32357 136.12285,-119.12049 0,-65.79691 -60.94122,-119.12048 -136.12285,-119.12048 z m -65.54448,383.83762 c 0,36.18756 29.34207,65.54448 65.54448,65.54448 36.20241,0 65.54448,-29.35692 65.54448,-65.54448 0,-36.18756 -29.34207,-65.54448 -65.54448,-65.54448 -36.20241,0 -65.54448,29.35692 -65.54448,65.54448 z m 65.54448,145.5818 c -75.18163,0 -136.12284,53.32357 -136.12284,119.12048 0,65.79692 60.92637,119.12049 136.12284,119.12049 75.19648,0 136.12285,-53.32357 136.12285,-119.12049 0,-65.79691 -60.94122,-119.12048 -136.12285,-119.12048 z m 145.5818,-145.5818 c 0,75.18162 53.32357,136.13769 119.10564,136.13769 65.78206,0 119.12048,-60.94122 119.12048,-136.13769 0,-75.19648 -53.32357,-136.12285 -119.12048,-136.12285 -65.79692,0 -119.10564,60.92637 -119.10564,136.12285 z" />
  <glyph
     glyph-name="tutorial"
     id="glyph6405"
     unicode="xe033;"
     d="M 156.78769,489.63536 V 295.38691 c 348.41388,-348.95121 696.84191,0 696.84191,0 V 489.63536 L 505.20157,274.5675 156.78769,489.63536 z M 499.3744,884.32715 4.7296631,640.75989 499.3744,335.42749 936.59606,605.316 V 253.38036 h 57.43723 V 640.77404 L 499.3744,884.32715 z" />
  <glyph
     glyph-name="interview"
     id="glyph6407"
     unicode="xe034;"
     d="m 804.7628,701.47847 c 0.0147,-3.99516 0.0732,-7.9757 0.0732,-11.97087 0,-272.87131 -53.04938,-494.02497 -309.25221,-494.02497 -256.17357,0 -309.25221,221.15366 -309.25221,494.02497 0,3.99517 0.0439,7.97571 0.0732,11.97087 H 49.515416 v -57.35185 h 78.117944 c 5.79518,-290.75444 71.22517,-522.28384 331.7305,-541.7182 -5.67811,-17.72214 -15.4831,-35.73697 -32.48817,-47.50297 H 347.44067 V -2.4317 h 296.2862 v 57.33715 h -79.30332 c -16.99042,11.766 -26.79541,29.79546 -32.50279,47.5176 260.41752,19.47827 325.84751,251.00766 331.61343,541.7182 h 78.13257 v 57.33722 H 804.7628 z M 495.56914,1017.9015 c -192.93872,0 -240.80755,-115.34763 -245.2271,-316.43766 H 740.81088 C 736.37668,902.5685 688.5225,1017.9015 495.56914,1017.9015 z m 0,-742.12044 c 195.90949,0 242.2417,162.82132 245.43199,368.34556 H 250.13715 c 3.20491,-205.52424 49.53714,-368.34556 245.43199,-368.34556 z" />
  <glyph
     glyph-name="review"
     id="glyph6409"
     unicode="xe035;"
     d="m 329.6724,997.24374 165.57424,-623.7355 123.25039,346.58968 120.64916,-363.06596 74.36705,66.80035 185.79881,0 0,-74.07337 -185.79881,0 L 722.68376,230.78837 618.49703,530.7604 495.24664,141.90301 329.6724,724.14004 222.31076,338.89122 l -219.7305677,0 0,74.07337 162.4271977,0 z" />
  <glyph
     glyph-name="download"
     id="glyph6411"
     d="M 823.98292,921.58906 H 178.38204 L 2.0569173,719.53958 V -2.4317 H 1000.308 V 719.53958 L 823.98292,921.58906 z M 194.39111,837.61532 H 807.9879 V 754.75393 H 194.39111 v 82.86139 z M 501.19655,101.38084 171.98967,365.79109 H 379.0939 V 589.77736 H 626.28418 V 365.79109 H 830.40342 L 501.19655,101.38084 z"
     unicode="xe036;" />
  <glyph
     glyph-name="column"
     id="glyph6413"
     unicode="xe037;"
     d="m 644.85177,897.69786 82.20601,120.30564 H 300.43441 l 78.84464,-120.30564 h 265.57272 z m 1.4322,-77.70472 H 381.23738 L 207.2969,523.92019 455.77077,-2.4317 h 21.65853 v 440.53618 c -48.59285,15.2282 -83.84276,60.57665 -83.84276,114.16763 0,66.07166 53.56174,119.64802 119.63341,119.64802 66.07166,0 119.6334,-53.56174 119.6334,-119.64802 0,-53.60558 -35.26452,-98.95405 -83.84276,-114.16763 V -2.4317 h 22.73999 L 820.23914,523.92019 646.28397,819.99314 z" />
  <glyph
     glyph-name="clan"
     id="glyph6415"
     unicode="xe038;"
     d="M 846.59495,366.69489 H 654.4986 c -13.12844,-61.7247 -30.01989,-95.94287 -88.4028,-138.0381 102.28945,-3.06096 162.52579,-53.84764 162.52579,-53.84764 h 263.81828 c 0,34.99043 0,100.50623 0,100.50623 0,50.46373 -98.69488,91.37951 -145.84492,91.37951 z m -599.99046,240.3694 c 85.91752,0 155.54736,69.62984 155.54736,155.53332 0,85.88944 -69.62984,155.51928 -155.54736,155.51928 -85.90348,0 -155.533324,-69.62984 -155.533324,-155.51928 -0.014,-85.90348 69.615804,-155.53332 155.533324,-155.53332 z m 38.37434,-56.54325 H 150.54929 c -47.15003,0 -145.8590008,-40.91578 -145.8590008,-91.39355 V 358.6353 H 233.56031 c -10.37638,46.58838 -14.95378,120.64117 51.41852,191.88574 z m 2.94863,-148.97613 c 0,-85.90348 69.62985,-155.53332 155.53333,-155.53332 85.91752,0 155.53332,69.62984 155.53332,155.53332 0,85.88944 -69.6158,155.51928 -155.53332,155.51928 -85.90348,0 -155.53333,-69.62984 -155.53333,-155.51928 z M 539.50195,189.43998 H 347.40559 c -47.16408,0 -145.859,-40.91578 -145.859,-91.37951 V -2.4317 H 685.3469 c 0,34.97638 0,100.49217 0,100.49217 0.014,50.46373 -98.69492,91.37951 -145.84495,91.37951 z m 111.94973,269.49093 c 26.91679,-22.26919 61.42983,-35.65036 99.10212,-35.65036 85.90348,0 155.53332,69.61579 155.53332,155.54736 0,85.87512 -69.62984,155.49091 -155.53332,155.49091 -85.90349,0 -155.53333,-69.61579 -155.53333,-155.49091 0,-7.87706 0.77227,-15.54351 1.89555,-23.11166 25.99009,-26.50961 44.9877,-59.73086 54.53566,-96.78534 z" />
  <glyph
     glyph-name="coverage"
     id="glyph6417"
     unicode="xe039;"
     d="m 502.90267,837.97721 c -168.98163,0 -305.94633,-136.97918 -305.94633,-305.97533 0,-94.93333 43.25051,-179.76522 111.11602,-235.88924 l 46.90789,81.27605 c -40.73963,38.998 -66.23999,93.78678 -66.23999,154.62771 0,118.27117 95.87671,214.17692 214.17693,214.17692 118.27117,0 214.17692,-95.89124 214.17692,-214.17692 0,-60.84093 -25.50037,-115.64422 -66.23999,-154.62771 l 46.9079,-81.26154 c 67.8655,56.10951 111.11598,140.9414 111.11598,235.87473 0,168.98163 -136.97918,305.97533 -305.97533,305.97533 z M 625.31021,532.0164 c 0,67.58975 -54.78876,122.39303 -122.39302,122.39303 -67.60427,0 -122.39304,-54.78877 -122.39304,-122.39303 0,-59.76693 42.87312,-109.46144 99.53415,-120.17247 L 313.58751,-2.4317 H 692.24685 L 525.77608,411.84393 c 56.66102,10.71103 99.53413,60.40554 99.53413,120.17247 z m -173.52438,0.0149 c 0,28.22891 22.87341,51.13134 51.11684,51.13134 28.24342,0 51.13134,-22.90243 51.13134,-51.13134 0,-28.24343 -22.88792,-51.14587 -51.13134,-51.14587 -28.24343,0 -51.11684,22.88792 -51.11684,51.14587 z m 51.11684,489.5137 c -270.359,0 -489.528624,-219.18412 -489.528624,-489.54312 0,-162.42148 79.171591,-306.29462 200.969594,-395.34996 l 46.22575,80.07143 C 166.10046,289.4364 105.17245,403.58572 105.17245,532.0164 c 0,219.69208 178.08167,397.75921 397.73022,397.75921 219.69208,0 397.75922,-178.08165 397.75922,-397.75921 0,-127.90819 -60.46359,-241.65113 -154.29389,-314.40773 l 46.25478,-80.12948 c 121.15938,89.11339 199.823,232.60918 199.823,394.53721 0.0149,270.359 -219.16961,489.5286 -489.54311,489.5286 z" />
  <glyph
     glyph-name="demo"
     id="glyph6419"
     d="M 800.21805,559.03161 H 751.8603 v 162.55363 c 0,26.33218 -15.81626,47.70021 -35.35234,47.70021 H 43.764674 c -19.5221,0 -35.3383562,-21.36803 -35.3383562,-47.70021 V 213.49325 c 0,-26.34642 15.8162562,-47.67252 35.3383562,-47.67252 H 716.50796 c 19.52209,0 35.35234,21.3261 35.35234,47.67252 v 162.56762 h 49.65829 c 38.51279,-61.30722 101.93164,-136.41696 194.13021,-168.35713 0,103.8475 0,380.13555 0,519.67101 C 902.06579,697.54621 838.43717,621.28976 800.21805,559.03161 z"
     unicode="xe03a;" />
  <glyph
     glyph-name="recruitment-ad"
     id="glyph6421"
     unicode="xe03b;"
     d="m 127.61064,609.92238 c 0,39.42414 -15.52371,71.36855 -34.664312,71.36855 H 31.4736 c -19.140602,0 -34.6643103,-31.94441 -34.6643103,-71.36855 V 404.8011 c 0,-39.40968 15.5237083,-71.35409 34.6643103,-71.35409 h 61.472728 c 19.140602,0 34.664312,31.94441 34.664312,71.35409 v 19.95078 l 103.66018,-32.75459 c -6.97337,-86.05314 7.23379,-170.52931 70.86219,-170.52931 h 92.95417 c 33.82519,0 80.62779,49.65272 85.09828,91.92697 L 775.02017,220.28164 V 776.57438 L 127.61064,572.23435 v 37.68803 z M 292.68568,372.62521 425.45462,330.71264 c -10.01156,-20.50055 -29.60066,-40.08965 -44.80608,-40.08965 h -46.91835 c -34.91026,0.15914 -42.73722,39.55435 -41.04451,82.00222 z M 885.48011,811.4557 V 185.42925 L 1004.1142,147.95823 V 848.89779 L 885.48011,811.4557 z" />
  <glyph
     glyph-name="question"
     id="glyph6423"
     d="M 921.05028,1011.2155 H 83.170221 c -43.365622,0 -78.5161591,-55.36322 -78.5161591,-123.66963 V 277.73828 c 0,-68.29162 35.1505371,-123.66961 78.5161591,-123.66961 H 518.09717 L 573.07622,-2.4317 781.0687,154.06867 h 139.99635 c 43.39518,0 78.53094,55.37799 78.53094,123.66961 v 609.80759 c -0.0148,68.30641 -35.16531,123.66963 -78.54571,123.66963 z M 566.04316,325.32965 H 416.103 V 426.70297 H 566.04316 V 325.32965 z m 122.31026,334.51343 c -11.55431,-19.38524 -35.12098,-43.11444 -70.72955,-71.09894 -24.82257,-19.63643 -40.44011,-35.40171 -46.97081,-47.34019 -6.48637,-11.90892 -9.7665,-27.43781 -9.7665,-46.58664 H 420.86065 v 13.99224 c 0,23.83262 2.71866,43.17355 8.11166,58.03754 5.39301,14.83444 13.47511,28.41297 24.17247,40.70606 10.66779,12.26353 34.67772,33.87986 72.00023,64.84897 19.90238,16.22332 29.83142,31.05777 29.83142,44.57721 0,13.50467 -3.95979,24.00994 -11.95326,31.50104 -7.97868,7.49109 -20.07969,11.22925 -36.30301,11.22925 -17.46446,0 -31.84086,-5.76238 -43.27697,-17.30192 -11.40657,-11.53954 -18.74991,-31.69312 -21.94138,-60.43116 l -142.95143,17.68608 c 4.92019,52.5559 24.0247,94.87249 57.32833,126.9202 33.27406,32.04772 84.27854,48.09373 153.04298,48.09373 53.53105,0 96.7637,-11.18493 129.68317,-33.54002 44.68063,-30.21557 67.03571,-70.49315 67.03571,-120.84753 0.0148,-20.89233 -5.76238,-41.03112 -17.28715,-60.44592 z"
     unicode="xe03c;" />
  <glyph
     glyph-name="platform"
     id="glyph6425"
     unicode="xe03d;"
     d="M 910.1159,640.42281 C 778.78468,856.20422 580.91075,706.08842 580.91075,706.08842 568.10508,696.36722 544.4526,688.42946 528.3578,688.37099 h -52.99151 c -16.09479,-0.0585 -39.73266,7.92314 -52.55295,17.62972 0,0 -197.87393,150.14503 -329.190533,-65.63637 C -37.679177,424.68526 15.209999,189.75382 15.209999,189.75382 24.521885,132.24525 55.05961,93.85747 112.72898,98.69614 c 57.49396,4.79482 182.3054,154.88138 182.3054,154.88138 10.29131,12.3525 31.86799,22.45378 47.93355,22.45378 l 317.65666,0.0585 c 16.0948,0 37.65686,-10.10127 47.94818,-22.45378 0,0 124.81144,-150.07194 182.3931,-154.86675 57.58167,-4.8533 88.23634,33.5491 97.43128,91.05767 0.0292,-0.0146 53.03535,234.85835 -78.28125,450.5959 z M 400.12567,553.98453 v -67.69756 -5.83272 h -5.8181 -67.97531 v -67.96069 -5.8181 h -5.81811 -67.84374 -5.8181 v 5.8181 67.96069 h -67.90222 -5.83272 v 5.83272 67.69756 5.8181 h 5.83272 67.90222 v 68.03378 5.81811 h 5.8181 67.84374 5.81811 v -5.81811 -68.03378 h 67.97531 5.8181 v -5.8181 z M 694.93385,389.96669 c -29.85066,0 -53.89784,24.09103 -53.89784,53.91246 0,29.82142 24.04718,53.91246 53.89784,53.91246 29.70448,0 53.9417,-24.09104 53.9417,-53.91246 0,-29.82143 -24.2226,-53.91246 -53.9417,-53.91246 z m 0,148.31774 c -29.85066,0 -53.89784,24.12027 -53.89784,53.95631 0,29.82143 24.04718,53.88323 53.89784,53.88323 29.70448,0 53.9417,-24.0618 53.9417,-53.88323 0.0146,-29.82142 -24.2226,-53.95631 -53.9417,-53.95631 z m 134.28413,-79.61152 c -29.85067,0 -53.89784,24.12028 -53.89784,53.95632 0,29.82143 24.04717,53.89784 53.89784,53.89784 29.70448,0 53.94169,-24.0618 53.94169,-53.89784 0,-29.83604 -24.23721,-53.95632 -53.94169,-53.95632 z" />
  <glyph
     glyph-name="game"
     id="glyph6427"
     unicode="xe03e;"
     d="m 498.58467,599.59873 c -62.67269,0 -113.48113,-50.80843 -113.48113,-113.46702 0,-62.65871 50.80844,-113.46715 113.48113,-113.46715 62.6446,0 113.45304,50.80844 113.45304,113.46715 0,62.65859 -50.80844,113.46702 -113.45304,113.46702 z m -0.0252,-172.28317 c -32.46527,0 -58.80203,26.33677 -58.80203,58.81615 0,32.46516 26.33676,58.80205 58.80203,58.80205 32.47927,0 58.81602,-26.33689 58.81602,-58.80205 0,-32.47938 -26.33675,-58.81615 -58.81602,-58.81615 z m 0,547.37958 c -269.81914,0 -488.549439,-218.74429 -488.549439,-488.56343 0,-269.81926 218.730299,-488.56341 488.549439,-488.56341 269.84723,0 488.57739,218.74415 488.57739,488.56341 0,269.81914 -218.73016,488.56343 -488.57739,488.56343 z M 47.495873,447.79034 c -1.066437,12.39718 -1.72493,24.90644 -1.72493,37.56994 0,6.04428 0.575386,11.94834 0.82722,17.93661 L 276.11277,491.4888 c -0.0756,-2.0475 -0.2518,-4.06692 -0.2518,-6.12852 0,-8.55451 0.74284,-16.9408 1.75299,-25.21481 -61.677,-3.75843 -156.02955,-9.22773 -230.117589,-12.35513 z M 282.7462,537.02425 61.000789,598.33664 c 17.403637,63.82257 48.985441,121.78318 91.309371,170.20758 L 314.8889,603.98822 C 300.30407,584.11643 289.30936,561.46788 282.7462,537.02425 z M 498.58757,304.20002 c -100.48109,0 -181.95976,81.46472 -181.95976,181.93169 0,100.46685 81.47867,181.93156 181.95976,181.93156 100.45285,0 181.93155,-81.46471 181.93155,-181.93156 0,-100.46697 -81.4787,-181.93169 -181.93155,-181.93169 z" />
  <glyph
     glyph-name="topic"
     id="glyph6429"
     unicode="xe03f;"
     d="M 500.50611,983.1536 C 228.33342,983.1536 7.706276,762.5265 7.706276,490.36803 7.706276,218.19535 228.33342,-2.4317 500.50611,-2.4317 c 272.15846,0 492.78555,220.62705 492.78555,492.79973 0,272.15847 -220.62709,492.78557 -492.78555,492.78557 z m 0,-909.74703 c -230.29012,0 -416.961494,186.67134 -416.961494,416.94723 0,230.27589 186.671374,416.94722 416.961494,416.94722 230.26166,0 416.94722,-186.67133 416.94722,-416.94722 0,-230.27589 -186.68556,-416.94723 -416.94722,-416.94723 z M 260.22565,679.18828 H 751.55963 V 778.1097 H 260.22565 v -98.92142 z m 0,-135.49574 h 491.33398 v 61.84901 H 260.22565 v -61.84901 z m 0,-115.68586 H 751.55963 V 489.8557 H 260.22565 v -61.84902 z m 0,-115.68585 h 491.33398 v 61.84903 H 260.22565 v -61.84903 z m 0,-115.68583 h 277.22479 v 61.84901 H 260.22565 V 196.635 z" />
  <glyph
     glyph-name="emblem-legendary"
     id="glyph6431"
     unicode="xe040;"
     d="m 151.28125,816.25 0,-81.875 -72.46875,0 0,-68.15625 -75.9375,0 0,-84.875 148.65625,0 0,-81.4375 84.5,0 0,80.53125 68.1875,0 0,-143.78125 85.03125,0 0,63.5 151.9375,0 0,-65.5 82.28125,0 0,146.78125 63.78125,0 0,-81.53125 85.9375,0 0,84.40625 152.1875,0 0,84.90625 -82.84375,0 0,68.125 -72.03125,0 0,78.90625 -619.21875,0 z m 0.25,-316.34375 -72.71875,0 0,-67.21875 72.71875,0 0,67.21875 z M 78.8125,432.6875 l -75.9375,0 0,-84 75.9375,0 0,84 z m 0,-84 0,-61.59375 305.8125,0 0,61.59375 -305.8125,0 z m 159.5625,382.21875 145.5625,0 0,-61.625 -145.5625,0 0,61.625 z m 302.53125,0 145.375,0 0,-61.65625 -145.375,0 0,61.65625 z m 232.3125,-231 0,-67.21875 151.21875,0 0,67.21875 -151.21875,0 z m 151.21875,-67.21875 0,-151.21875 73.75,0 0,151.21875 -73.75,0 z m 0,-151.21875 -151.21875,0 0,-80.125 151.21875,0 0,80.125 z" />
  <glyph
     glyph-name="emblem-rare"
     id="glyph6433"
     unicode="xe041;"
     d="m 788.53233,320.37082 c 43.66014,0 96.91577,0 144.68428,0 0,-24.67808 0,-48.0192 0,-74.00638 -44.44004,0 -96.91577,0 -144.68428,0 0,24.74771 0,50.77667 0,74.00638 z m -706.583874,-10e-6 138.236224,0 0,-75.81684 -138.236224,0 z m 201.240364,10e-6 c 48.85479,0 102.59785,0 155.63065,0 0,-24.66415 0,-47.94956 0,-74.00638 -49.67647,0 -102.62571,0 -155.63065,0 0,24.70593 0,50.72097 0,74.00638 z m 441.14152,0 c 0,18.2718 0,40.80517 0,64.41089 -23.63358,0 -42.78277,0 -79.21496,0 0,23.09044 0,50.60956 0,77.37664 -95.1053,0 -281.15182,0 -281.15182,0 v -77.37664 h -80.77474 v -64.41089 h -62.99037 v 141.78753 h 62.99037 v 81.41537 h -62.99037 v 76.3182 h -78.10082 v 66.04032 H 80.291019 v 59.88472 H 1.6749106 v 77.307 H 142.0837 v -77.307 h 78.10082 v -59.88472 h 62.99037 v -66.04032 h 80.77475 v -76.3182 h 74.8559 v 76.3182 c 0,0 -49.73217,0.0279 -74.8559,0.0279 0,45.21993 0,76.22072 0,125.89718 23.50823,0 46.62652,0 74.8559,0 0,-20.63934 0,-45.49846 0,-60.24681 6.30879,0 99.21367,0.36209 145.58952,0.36209 0,17.40835 0,37.01712 0,59.88472 23.8564,0 36.15366,0 60.69247,0 0,-49.67646 0,-125.92504 0,-125.92504 h -60.69247 v -76.3182 h 60.69247 c 0,0 0,57.33614 0,76.3182 24.52488,0 79.21495,0 79.21495,0 v 66.04032 h 64.202 V 745.817 h 77.07024 v 77.307 h 138.65408 v -77.307 h -71.05397 v -59.88472 h -67.60011 v -66.04032 h -77.07024 v -76.3182 h -64.202 v -81.41537 h 64.202 c 0,0 0,-95.43954 0,-141.78753 -20.98751,0 -43.17271,0 -64.17414,0 z m 0,2.3444 c 0,-23.22971 0,-49.25867 0,-75.81685 -45.79093,0 -93.14164,0 -139.92136,0 0,23.98174 0,49.14725 0,75.81685 46.26443,0 96.26121,0 139.92136,0 z" />
  <glyph
     glyph-name="emblem-special"
     id="glyph6435"
     unicode="xe042;"
     d="m 244.69534,570.51264 v 84.62652 h 150.88987 v 65.79541 h 233.40355 v -65.79541 h 151.3011 v -84.62652 h 68.48962 v -84.95265 h 83.26523 V 421.5938 h 67.25596 V 339.23609 H 848.77948 V 270.63303 H 699.25089 v 62.70416 H 547.51022 v -62.70416 h -68.2202 v 63.21465 H 321.13997 V 270.63303 H 160.77783 v 63.21465 H 10.568599 v 87.73194 h 81.521084 v 63.96619 h 68.688147 v 84.95265 h 83.91751 z M 479.29002,485.55999 H 395.58521 V 421.5938 h 83.70481 v 63.96619 z m 68.2202,-63.95201 h 81.47854 v 63.96619 h -81.47854 v -63.96619 z m 151.74067,0 h 81.03897 v 63.96619 h -81.03897 v -63.96619 z m -454.55555,0 h 76.44463 v 63.96619 h -76.44463 v -63.96619 z" />
  <glyph
     glyph-name="blogentry"
     id="glyph3727"
     d="m 227.73455,105.97163 h 566.59633 c 25.83438,37.98633 0,64.64718 0,64.64718 H 227.73455 c 0,0 -26.50778,-26.66085 0,-64.64718 z M 888.48557,882.53352 V 53.61416 c 0,0 -627.38671,0 -702.04317,0 -74.65646,0 -61.08116,169.40803 0,169.40803 61.06586,0 644.06886,0 644.06886,0 V 1017.261 H 194.87531 c 0,0 -109.551236,10.1624 -109.551236,-99.46539 V 99.89566 C 85.324074,-6.8853 187.68208,-2.4317 187.68208,-2.4317 H 941.0573 v 884.98052 h -52.57173 z"
     unicode="xe043;" />
  <glyph
     glyph-name="upload"
     id="glyph5731"
     d="M 822.87782,918.0194 H 179.77526 L 4.144476,716.7686 V -2.4317 H 998.53736 V 716.7686 L 822.87782,918.0194 z M 195.71948,834.37336 H 806.9336 V 751.81999 H 195.71948 v 82.55337 z M 622.96409,324.1156 V 100.99722 H 376.74169 V 324.1156 H 173.42058 L 501.37686,587.51837 829.27563,324.1156 H 622.96409 z"
     unicode="xe044;" />
  <glyph
     glyph-name="star-empty"
     id="glyph5733"
     d="M 977.35255,562.94507 645.68391,611.13009 497.3326,911.66898 348.99462,611.13009 17.352595,562.94507 257.34266,328.98353 200.71006,-1.3351 497.3326,154.63486 793.99525,-1.3351 737.36264,328.98353 977.35255,562.94507 z M 497.3326,270.94746 315.51222,175.36588 350.25103,377.82328 203.14269,521.22913 406.42913,550.76835 497.3326,734.9946 588.27617,550.76835 791.56249,521.22913 644.4676,377.82328 679.17964,175.36588 497.3326,270.94746 z"
     unicode="xe045;" />
  <glyph
     glyph-name="delete"
     id="glyph5736"
     d="m 983.33417,200.39944 -287.0581,287.07162 287.0581,287.05808 c 8.71959,8.71964 6.90815,24.61774 4.78569,26.7537 L 814.87645,974.5262 c -2.12242,2.12247 -20.96764,6.85405 -29.64669,-1.86559 L 498.15815,685.61603 211.10006,972.66061 c -8.69261,8.69261 -27.84872,3.6636 -29.97119,1.5006 L 9.2779626,802.32381 C 7.1419939,800.18782 4.27601,783.22175 12.968595,774.51562 L 300.04021,487.45753 12.982114,200.41295 C 4.27601,191.70687 9.3185204,172.53721 11.454491,170.41477 L 183.31893,-1.4361 c 2.13596,-2.1361 19.10204,-4.9884 27.79465,3.6906 L 498.17167,289.31255 785.24327,2.2545 c 8.69259,-8.6925 24.59069,-6.8947 26.74017,-4.7586 l 173.21634,173.21626 c 2.12246,2.19005 6.82699,21.00822 -1.86561,29.68728 z"
     unicode="xe046;" />
  <glyph
     glyph-name="alarm"
     id="glyph5738"
     d="m 944.44503,139.50799 c -26.07928,0 -295.15965,0 -409.77039,0 53.2274,0 85.19344,-141.93969 -37.65546,-141.93969 -125.3483,0 -101.34089,141.93969 -45.56476,141.93969 -45.08789,0 -356.066137,0 -389.347649,0 0,83.76285 165.453839,65.32976 165.453839,168.34788 0,103.01812 0,331.25267 0,383.11525 0,51.8626 148.25402,188.8693 253.19602,214.93214 -58.39064,0 -71.6276,110.30254 22.5275,110.30254 97.4438,0 84.61791,-111.47002 26.98368,-111.47002 104.62957,-30.14081 248.75628,-170.46908 248.75628,-213.76466 0,-43.29556 0,-288.00643 0,-383.11525 0,-95.10883 165.42094,-88.3999 165.42094,-168.34788 z"
     unicode="xe047;" />
  <glyph
     glyph-name="approve"
     id="glyph5740"
     d="M 849.22941,833.64733 990.19047,690.31718 373.27856,73.48889 8.2570129,438.60798 l 0.055743,-0.0557 193.6385441,193.73609 175.31291,-190.4751 471.9652,391.8341 z"
     unicode="xe048;" />
  <glyph
     glyph-name="pageviews"
     id="glyph5743"
     d="M 92.207716,822.63185 H 8.0388232 V -2.4317 H 986.92952 V 81.73718 H 92.207716 V 822.63185 z M 752.91501,380.08303 575.2419,582.34345 404.80366,308.62664 163.568,498.97108 V 150.83227 H 986.94325 V 822.64558 L 752.91501,380.08303 z"
     unicode="xe049;" />
  <glyph
     glyph-name="user-deleted"
     id="glyph5747"
     d="M 847.91956,929.43314 959.77302,817.56374 139.66154,-2.4317 27.808029,109.43762 z M 155.50444,332.03891 C 89.209686,302.89506 28.979228,256.72149 28.139797,204.689 L 155.50444,332.03891 z m 467.67012,32.42576 -22.07824,4.5e-4 -337.89521,-337.88918 616.83378,-1.1e-4 c 4.5e-4,61.64405 4.5e-4,176.98303 4.5e-4,176.98303 0.0145,88.87385 -173.83288,160.9092 -256.86386,160.90892 z m -301.49103,133.76791 372.0973,372.08624 c -46.67476,84.34023 -136.49021,141.52438 -239.73006,141.52438 -151.26894,-4e-4 -273.89359,-122.63991 -273.89519,-273.87702 0,-103.24002 57.16875,-193.05635 141.52457,-239.73007 z"
     unicode="xe04a;" />
  <glyph
     glyph-name="replied"
     id="glyph5769"
     d="m 445.00143,450.95065 c 0.85374,78.49848 2.30025,209.68076 2.30025,209.68076 L 996.71061,335.87988 440.33062,23.1816 c 0,0 0.21166,21.827 2.02907,186.20669 -556.11881,6.05681 -617.33055,646.88162 59.70496,776.38657 C 201.82182,720.8488 164.52636,485.89584 445.00143,450.95065 z"
     unicode="xe04b;" />
  <glyph
     glyph-name="cup"
     id="glyph8686"
     d="m 789.25183,756.08591 c 0.83383,22.87072 1.26563,45.86055 1.26563,68.86528 -161.55422,0 -445.35361,0 -599.59695,0 0,-23.00473 0.55093,-45.99456 1.60809,-68.86528 -62.92424,0 -131.997972,0 -190.0681533,0 C 2.4604467,587.33993 157.89495,493.53425 244.41952,454.3741 286.06627,334.16882 353.69569,245.64902 453.05527,224.49063 V 90.05072 H 308.07338 V -2.6829 H 695.81839 V 90.05072 H 554.20161 v 136.36069 c 91.94445,23.3472 151.72695,107.04271 188.10271,220.5178 81.01535,33.77004 259.14188,128.51378 259.14188,309.17159 -64.96413,-0.0149 -143.73111,-0.0149 -212.19437,-0.0149 z M 73.291176,671.43746 c 13.579485,40.78313 79.600814,44.05888 121.709144,41.79564 4.58605,-61.39061 13.14767,-121.05399 26.04224,-176.6078 C 157.5376,570.172 59.413893,629.80561 73.291176,671.43746 z m 689.948194,-144.967 c 12.2394,57.84683 19.92254,120.53285 23.89811,184.99076 35.36324,3.88623 127.1588,8.91898 143.47802,-40.02376 15.39604,-46.24769 -107.38517,-114.71095 -167.37613,-144.967 z"
     unicode="xe04c;" />
  <glyph
     glyph-name="alarm-assigned"
     id="glyph8688"
     d="m 635.91502,285.59281 v 19.92684 H 366.60508 v 164.34931 c 0,82.53749 117.83398,149.42957 194.94348,149.42957 h 2.52532 c -53.06085,40.72449 -89.62001,101.75318 -97.8636,171.60599 -17.08222,9.37563 -33.99029,16.9516 -49.83889,21.52331 50.88386,0 62.18977,98.38608 -23.81641,98.38608 -83.11803,0 -71.43477,-97.35562 -19.89783,-97.35562 C 280.01837,790.45461 149.18041,669.52928 149.18041,623.75413 V 285.60732 c 0,-90.94073 -146.0189326,-74.67125 -146.0189326,-148.5878 H 346.80885 c -49.24383,0 -70.41883,-125.27932 40.21653,-125.27932 108.42933,0 80.21535,125.27932 33.22108,125.27932 h 361.67298 c 0,70.54945 -146.00442,64.628 -146.00442,148.57329 z m 82.69714,353.73416 c 100.33086,0 181.67827,81.33288 181.67827,181.66375 0,100.31635 -81.33289,181.66378 -181.67827,181.66378 -100.34539,0 -181.66376,-81.36194 -181.66376,-181.6783 0,-100.33087 81.33288,-181.64923 181.66376,-181.64923 z M 830.80044,573.26215 H 606.43839 c -55.07821,0 -170.34333,-47.77799 -170.34333,-106.73126 V 349.14682 h 565.07774 c 0,40.88414 0,117.38407 0,117.38407 -0.015,58.93875 -115.30865,106.73126 -170.37236,106.73126 z"
     unicode="xe04d;" />
  <glyph
     glyph-name="sticky"
     id="glyph10917"
     d="m 749.4542,623.91427 c -53.71263,48.71432 -69.16609,104.09305 -80.32438,164.95921 -5.30401,28.84341 -13.6498,59.29177 -17.76155,76.18206 -101.11241,0 -53.51392,0 -134.95412,0 0,0.0153 0,0.0153 0,0.0153 -111.53701,0 -47.46093,0 -156.52171,0 -4.14233,-16.90557 -12.48811,-47.35393 -17.79213,-76.18205 -11.14299,-60.88148 -26.59646,-116.26021 -80.30909,-164.97453 -34.08627,-30.9375 -70.05263,-78.33728 -70.05263,-147.1671 h 146.98367 v -0.0153 H 456.48039 C 473.70695,299.49854 478.81225,49.27778 505.62271,-3.6247 c 26.50475,52.21468 31.79347,302.45071 49.14232,480.35659 h 264.7418 c 0,68.86039 -35.96636,116.24489 -70.05263,147.18239 z M 495.33569,931.86769 c 74.01153,-0.0153 109.33592,-0.3057 215.93576,-0.0765 2.21638,77.43547 -6.98538,86.19397 -103.48163,86.75947 -75.44837,0.4433 -34.02514,0.6879 -101.46399,0.061 -69.4718,0.642 -26.91745,0.3821 -102.87022,-0.046 -96.49626,-0.5808 -105.69802,-9.3087 -103.49693,-86.77477 96.25168,-0.19871 134.41913,0 195.37701,0.0765 z"
     unicode="xe04e;" />
  <glyph
     glyph-name="gm-mascot"
     id="glyph6001"
     d="m 845.43562,403.21282 c -42.76993,21.7931 -85.80169,43.10876 -128.80264,64.51683 -2.83387,1.40153 -5.79096,2.57205 -10.44221,4.60504 12.66002,-67.85895 10.45761,-133.56169 -2.20241,-199.09502 -12.61382,-65.34851 -35.99328,-126.58482 -70.35399,-186.35799 -1.9868,5.74475 -3.35753,9.07147 -4.26622,12.50601 -19.96032,74.66641 -39.84364,149.36362 -59.91178,223.99922 -1.70956,6.33001 -0.93949,11.08907 3.32672,16.29478 14.80083,18.06594 29.07801,36.53232 44.03285,55.44535 -23.02522,21.91632 -45.89643,42.38489 -73.11086,57.61696 -16.26397,9.10228 -31.37282,8.59403 -46.21986,-2.63365 -5.71395,-4.32782 -11.92075,-8.08578 -17.23426,-12.84484 -17.5731,-15.74032 -34.80736,-31.81947 -48.71491,-44.58731 17.78872,-19.7601 34.48393,-37.91846 50.60929,-56.56966 2.78767,-3.20351 4.78986,-8.68644 4.34322,-12.84484 C 479.6811,258.10001 472.427,192.99792 465.2037,127.86504 463.52494,112.55596 461.52275,97.29308 459.30494,79.04232 362.30637,194.55347 330.64091,326.28239 342.73108,471.71863 c -2.37183,-0.67766 -4.1738,-1.00109 -5.80636,-1.69416 -43.4476,-18.05054 -86.94139,-36.05488 -130.23497,-54.52126 -3.28052,-1.40154 -6.62264,-5.85257 -7.36192,-9.41031 -7.59293,-37.2562 -15.6325,-74.46619 -21.57748,-111.99961 -7.2849,-45.72702 -10.30359,-91.88528 -3.92738,-138.04353 3.37293,-24.42676 10.73484,-47.26717 30.58736,-64.40902 27.79968,-24.02632 59.55755,-39.45861 95.3814,-47.03614 3.31132,-0.69307 7.76235,-2.60285 8.97907,-5.22111 C 314.45395,27.26252 324.3417,21.41 336.46268,17.575 372.68697,6.1163 409.97397,0.6796 447.64601,-2.4777 c 52.68849,-4.4202 105.42318,-4.3586 158.08086,0.046 41.3992,3.4653 82.44416,9.1947 122.25701,21.8239 9.19468,2.9263 15.64791,8.37837 20.26835,16.75678 1.60176,2.89548 4.72826,5.72935 7.79316,6.88447 31.41903,11.93615 60.38923,28.16932 87.29562,48.31446 9.68754,7.2695 17.41909,16.04835 19.69851,27.55326 4.54343,22.825 9.77994,45.88103 10.61162,69.01406 2.54125,68.93706 -7.70074,136.91922 -19.6369,204.57796 -0.69306,4.00438 -4.77446,8.77884 -8.57862,10.71943 z M 272.31548,778.68567 c -0.10781,-3.65015 -0.0154,-7.2849 -0.0154,-9.68753 74.14276,10.61162 147.22281,24.78099 220.93433,30.55655 74.08115,5.79096 148.76296,3.23431 223.7066,4.35862 -0.18482,1.26292 -0.38504,4.01979 -1.0473,6.66884 -12.84484,52.02622 -16.20237,104.6069 -9.24089,157.80364 1.20131,9.10228 -1.30913,12.13637 -10.76564,10.59622 -9.77995,-1.60175 -19.6677,-3.75796 -28.90859,-7.2541 -37.31781,-14.06155 -74.29678,-28.9856 -111.58378,-43.07796 -37.64123,-14.23097 -76.08334,-23.77989 -116.98969,-18.95923 -42.4157,5.00548 -84.9084,9.73374 -127.4011,13.84594 -16.37178,1.60175 -32.94378,1.35533 -49.43878,1.58635 -5.55993,0.077 -8.80965,-2.24862 -6.57643,-8.91746 14.95484,-44.66431 18.55879,-90.79177 17.32667,-137.51988 z m 672.10548,-52.08783 c -14.5082,5.49833 -29.1704,11.3201 -44.29466,14.40039 -72.86444,14.77003 -146.62216,23.30245 -220.82652,27.35304 -92.1625,5.03629 -184.04777,1.27833 -275.37859,-12.53681 C 322.98637,743.58568 243.4993,724.87288 166.15303,698.08969 135.36546,687.41646 105.60979,673.53972 75.79251,660.24824 67.98395,656.7675 61.63854,649.99085 54.63086,644.73894 c 0.69307,-1.58635 1.37074,-3.15731 2.0792,-4.72826 297.89557,54.8755 598.6558,74.5124 901.68014,74.01955 -4.2817,5.80636 -8.60954,10.53462 -13.96924,12.56761 z M 499.11778,621.5905 c -13.4917,2.26402 -27.30684,2.67986 -40.95255,3.94279 -50.94812,4.68205 -101.86544,9.4103 -152.81356,14.09236 -21.93172,2.01759 -43.86343,4.01978 -68.64443,6.2992 4.78987,-3.32672 7.10009,-5.2211 9.67214,-6.69964 57.74017,-33.39043 115.49575,-66.82705 173.46695,-99.86324 3.52694,-2.0022 9.65673,-2.34103 13.35308,-0.72387 27.07582,11.93615 53.7666,24.79639 80.82701,36.74794 4.29701,1.90979 10.44221,2.14081 14.92404,0.67767 31.97349,-10.42681 63.86997,-21.16164 95.50462,-32.58955 8.51702,-3.08029 13.22988,-1.27832 18.85142,5.28271 37.79525,44.03285 75.97554,87.74227 113.98641,131.5595 1.32452,1.54015 2.34102,3.37293 4.35862,6.31461 -3.85038,-0.61606 -6.26841,-0.75467 -8.57863,-1.38613 -64.88647,-17.80412 -129.68052,-35.96247 -194.6902,-53.33535 -19.32886,-5.1749 -38.10328,-13.89214 -59.26492,-10.319 z"
     unicode="xe04f;" />
  <glyph
     glyph-name="gm-logo-g"
     id="glyph6010"
     d="M 986.62169,-2.4317 H 501.33397 c -133.42571,0 -247.72694,47.5092 -342.73118,142.54217 -95.047246,95.00423 -142.556546,209.29104 -142.556546,342.7455 0,133.44018 47.5093,247.68383 142.556546,342.70242 95.00424,95.03298 209.30547,142.58542 342.73118,142.58542 h 363.9694 V 798.28085 h -363.9694 c -63.08208,0 -105.54427,-39.62942 -127.37201,-118.88825 -12.16497,-44.50401 -18.21867,-110.00179 -18.21867,-196.53663 0,-86.54914 6.0537,-152.07567 18.21867,-196.53658 21.84221,-79.2732 64.3043,-118.90253 127.37201,-118.90253 h 181.9847 v 194.12078 c 0,24.22917 -16.19101,36.37967 -48.54462,36.37967 H 501.33397 v 169.8342 h 303.30301 c 42.86471,0 82.09162,-9.28908 117.70916,-27.8958 42.85043,-23.45276 64.28992,-54.55522 64.28992,-93.42251 V -2.4317 z"
     unicode="xe050;" />
  <glyph
     glyph-name="gm-logo-m"
     id="glyph6012"
     d="M 985.36706,-2.4172 H 791.25186 V 374.8707 L 655.34257,118.89753 C 612.479,37.98748 560.75806,-2.4317 500.0646,-2.4317 c -60.65016,0 -112.41421,40.40481 -155.29214,121.32923 L 208.90626,374.8707 V -2.4172 H 14.819846 v 800.89044 c 0,46.02693 15.7593,85.85655 47.30652,119.37372 31.53299,33.50281 69.910254,50.29732 115.246904,50.29732 67.09202,0 117.23129,-34.71062 150.43217,-104.07449 L 500.0646,505.92002 672.35269,864.06979 c 33.14351,69.36387 82.47747,104.07449 148.00208,104.07449 46.14186,0 85.09433,-16.78014 117.07303,-50.29732 31.9355,-33.51717 47.93926,-73.34679 47.93926,-119.37372 V -2.4172 z"
     unicode="xe051;" />
  <glyph
     glyph-name="gm-logo-a"
     id="glyph6014"
     d="M 991.54142,-2.4317 H 663.85088 L 621.38877,118.90103 H 233.03172 L 190.64145,-2.4317 H 20.965402 L 313.32593,833.46744 c 13.7466,40.43467 38.17713,72.97509 73.39207,97.64998 35.17183,24.66063 74.21177,37.02686 117.0766,37.02686 41.28301,0 80.49537,-12.15061 117.70911,-36.43725 37.17055,-24.22918 62.66524,-55.38922 76.42611,-93.39373 L 991.54142,-2.4317 z M 562.03087,288.73533 427.15267,673.91436 292.4471,288.73533 h 269.58377 z"
     unicode="xe052;" />
  <glyph
     glyph-name="gm-logo-e"
     id="glyph6016"
     unicode="xe053;"
     d="M 861.84477,-2.4317 H 315.89842 c -42.86419,0 -82.09034,9.2745 -117.6931,27.89548 -42.89283,23.4667 -64.28901,54.58308 -64.28901,93.43556 v 727.91388 c 0,38.80927 21.38171,69.92575 64.28901,93.43556 35.60276,18.57781 74.81454,27.8955 117.6931,27.8955 H 861.84477 V 798.28376 H 485.74458 c -32.32431,0 -48.5152,-12.10723 -48.5152,-36.40798 V 567.74334 H 861.84477 V 397.91165 H 437.22938 V 203.79358 c 0,-24.24329 16.19089,-36.37914 48.5152,-36.37914 H 861.84477 V -2.4317 z" />
  <glyph
     glyph-name="gm-logo-r"
     id="glyph6018"
     unicode="xe054;"
     d="M 1003.9151,-2.4317 H 621.72687 L 342.69598,329.96087 V -2.4317 H 2.99869 V 968.14428 H 427.6203 c 122.09489,0 225.65482,-17.83037 310.6079,-53.36169 116.48696,-49.34986 174.69446,-126.59562 174.69446,-231.75166 0,-71.20644 -27.8959,-130.24797 -83.7164,-177.12458 C 783.09171,467.06778 721.66321,439.17188 644.82007,422.18989 L 1003.9151,-2.4317 z M 573.16787,683.03093 c 0,35.57446 -15.75974,64.30436 -47.25047,86.13218 -28.35604,19.44086 -61.12653,29.11815 -98.2971,29.11815 H 342.69598 V 567.73747 h 84.92432 c 37.17057,0 69.94106,9.7348 98.2971,29.1469 31.50511,21.85658 47.25047,50.54334 47.25047,86.14656 z" />
  <glyph
     glyph-name="gm-logo-s"
     id="glyph6020"
     unicode="xe055;"
     d="m 873.31132,276.57039 c 0,-71.96861 -22.27357,-135.46762 -66.74897,-190.45423 C 759.64262,27.07466 701.00384,-2.4317 630.6889,-2.4317 H 145.38638 V 167.4026 H 497.22 c 14.58046,0 26.47224,6.0536 35.79007,18.20411 9.27463,12.13624 13.94786,25.46586 13.94786,40.04653 0,17.75839 -12.95564,36.76793 -38.82411,57.01395 -56.62581,36.39405 -139.93969,93.01996 -249.91281,169.87743 -75.20389,56.56833 -112.83463,132.18921 -112.83463,226.834 0,75.2039 21.05136,140.73046 63.09649,196.53676 46.891,61.47157 106.7522,92.2289 179.55477,92.2289 H 873.31132 V 798.28133 H 521.46344 c -13.76097,0 -25.2644,-5.66556 -34.5535,-16.9819 -9.31783,-11.34538 -13.99106,-24.27238 -13.99106,-38.83878 0,-17.77276 10.54004,-34.38098 31.56256,-49.72357 L 704.67048,543.50839 c 55.79184,-41.25437 95.83827,-78.85637 120.11055,-112.8491 32.33916,-45.338 48.53029,-96.6435 48.53029,-154.0889 z" />
  <glyph
     glyph-name="gm-logo-f"
     id="glyph6022"
     unicode="xe056;"
     d="M 858.91036,397.91769 H 434.30313 V -2.4317 H 130.9569 v 849.25762 c 0,38.80984 21.41086,69.92667 64.27558,93.43682 35.64639,18.59255 74.84437,27.88154 117.73793,27.88154 H 858.91036 V 798.29565 H 482.83351 c -32.36799,0 -48.53038,-12.1074 -48.53038,-36.39415 V 567.75196 H 858.91036 V 397.91769 z" />
  <glyph
     glyph-name="gm-logo-i"
     id="glyph6024"
     unicode="xe057;"
     d="M 650.10757,-2.4317 H 346.80425 V 968.14428 H 650.10757 V -2.4317 z" />
  <glyph
     glyph-name="home-stream"
     id="glyph8307"
     unicode="xe058;"
     d="M 4.869094,839.6554 H 700.08275 V 983.99847 H 4.869094 V 839.6554 z m 0,-280.69595 H 700.08275 V 703.30252 H 4.869094 V 558.95945 z m 0,-280.69595 H 700.08275 V 422.60656 H 4.869094 V 278.2635 z m 0,-280.696 H 700.08275 V 141.91061 H 4.869094 V -2.4325 z M 803.3804,983.99847 V 735.04431 H 998.97551 V 983.99847 H 803.3804 z m 0,-617.70622 H 998.97551 V 615.26009 H 803.3804 V 366.29225 z m 0,-368.72475 H 998.97551 V 246.52171 H 803.3804 V -2.4325 z" />
  <glyph
     glyph-name="home-tetris"
     id="glyph8309"
     unicode="xe059;"
     d="M 3.409303,745.1113 H 327.22096 V 984.01253 H 3.409303 V 745.1113 z m 0,-89.32971 H 327.22096 v 44.9727 H 3.409303 v -44.9727 z M 756.4934,984.01253 V 735.05504 H 997.51533 V 984.01253 H 756.4934 z m 0,-617.70081 H 997.51533 V 615.2829 H 756.4934 V 366.31172 z m 0,-368.74332 H 997.51533 V 246.5259 H 756.4934 V -2.4316 z M 3.409303,323.58287 H 327.22096 V 562.4841 H 3.409303 V 323.58287 z m 0,-89.32971 H 327.22096 v 44.9727 H 3.409303 v -44.9727 z m 0,-236.68476 H 327.22096 V 152.48959 H 3.409303 V -2.4316 z M 404.9073,829.09135 H 684.00621 V 984.01253 H 404.9073 V 829.09135 z m 0,-341.37933 H 684.00621 V 726.61325 H 404.9073 V 487.71202 z m 0,-89.34339 h 279.09891 v 44.9727 H 404.9073 v -44.9727 z m 0,-313.67331 H 684.00621 V 323.59655 H 404.9073 V 84.69532 z m 0,-89.34342 H 684.00621 V 40.32463 H 404.9073 V -4.6481 z" />
</font>
</defs>
</svg>
